<svg width="127" height="82" viewBox="0 0 127 82" fill="none" xmlns="http://www.w3.org/2000/svg">
<path d="M48.3379 40.4135C48.3379 35.0253 51.7141 30.2142 56.7825 28.3799L56.4913 57.3416C51.9883 57.3416 48.3379 53.6927 48.3379 49.1916V40.4135Z" fill="#04C1D6"/>
<path d="M15.875 4.11426H24.1065V24.0967H15.875V4.11426Z" fill="#04C1D6"/>
<path fill-rule="evenodd" clip-rule="evenodd" d="M13.5231 4.48907C5.40921 9.48447 0 18.4461 0 28.6706C0 44.3442 12.7112 57.0502 28.3914 57.0502C44.0715 57.0502 56.7827 44.3442 56.7827 28.6706C56.7827 12.997 44.0715 0.291016 28.3914 0.291016C27.7417 0.291016 27.0971 0.312826 26.4583 0.355759V8.80983C27.0944 8.74877 27.7393 8.7175 28.3914 8.7175C39.4157 8.7175 48.3527 17.6508 48.3527 28.6706C48.3527 39.6904 39.4157 48.6237 28.3914 48.6237C17.367 48.6237 8.42998 39.6904 8.42998 28.6706C8.42998 23.5547 10.3561 18.8885 13.5231 15.357V4.48907ZM15.875 13.1263C18.236 11.2244 21.0394 9.84892 24.1065 9.17833V0.612104C21.1939 1.05283 18.4265 1.93587 15.875 3.19056V13.1263Z" fill="#04C1D6"/>
<path fill-rule="evenodd" clip-rule="evenodd" d="M23.5185 15.8682C19.2971 15.8682 15.875 19.2889 15.875 23.5085V34.0875C15.875 38.3071 19.2971 41.7278 23.5185 41.7278V27.6226C23.5185 25.675 25.098 24.0962 27.0463 24.0962H29.3981C31.3465 24.0962 32.9259 25.675 32.9259 27.6226V41.7278H33.5139C37.7353 41.7278 41.1574 38.3071 41.1574 34.0875V23.5085C41.1574 19.2889 37.7353 15.8682 33.5139 15.8682H23.5185Z" fill="#04C1D6"/>
<path d="M69.8895 24.4423C71.3006 24.4423 72.4331 24.9117 73.2862 25.8504C74.1387 26.7744 74.565 28.0504 74.565 29.6784V36.8504H70.8156V30.1844C70.8156 29.3631 70.6027 28.725 70.1759 28.2704C69.7496 27.8157 69.1763 27.5884 68.4555 27.5884C67.7352 27.5884 67.162 27.8157 66.7351 28.2704C66.3088 28.725 66.096 29.3631 66.096 30.1844V36.8504H62.3242V20.5703H66.096V26.2243C66.4782 25.6817 67.0003 25.249 67.6617 24.9264C68.3232 24.6037 69.0658 24.4423 69.8895 24.4423Z" fill="#04C1D6"/>
<path d="M88.7869 30.5145C88.7869 30.8665 88.7651 31.2331 88.721 31.6145H80.185C80.2438 32.3771 80.4866 32.9638 80.9129 33.3745C81.3544 33.7705 81.8907 33.9685 82.5233 33.9685C83.464 33.9685 84.1185 33.5725 84.4859 32.7805H88.5C88.2942 33.5871 87.9196 34.3131 87.3752 34.9585C86.846 35.6038 86.1769 36.1099 85.3685 36.4765C84.5594 36.8432 83.6551 37.0265 82.6556 37.0265C81.4497 37.0265 80.3761 36.7699 79.4353 36.2565C78.494 35.7432 77.7591 35.0098 77.2299 34.0565C76.7001 33.1031 76.4355 31.9885 76.4355 30.7125C76.4355 29.4365 76.6931 28.3218 77.2075 27.3684C77.7373 26.4151 78.4722 25.6818 79.413 25.1684C80.3543 24.6551 81.435 24.3984 82.6556 24.3984C83.8462 24.3984 84.9052 24.6477 85.8312 25.1464C86.7578 25.6451 87.4781 26.3564 87.9931 27.2804C88.5223 28.2044 88.7869 29.2824 88.7869 30.5145ZM84.9269 29.5245C84.9269 28.8791 84.7064 28.3658 84.2654 27.9845C83.8245 27.6031 83.273 27.4124 82.6115 27.4124C81.9789 27.4124 81.4426 27.5958 81.0011 27.9624C80.5748 28.3291 80.3102 28.8498 80.2073 29.5245H84.9269Z" fill="#04C1D6"/>
<path d="M94.5486 20.5703V36.8504H90.7769V20.5703H94.5486Z" fill="#04C1D6"/>
<path d="M101.053 20.5703V36.8504H97.2812V20.5703H101.053Z" fill="#04C1D6"/>
<path d="M109.388 37.0265C108.183 37.0265 107.095 36.7699 106.125 36.2565C105.169 35.7432 104.411 35.0098 103.853 34.0565C103.309 33.1031 103.037 31.9885 103.037 30.7125C103.037 29.4511 103.316 28.3438 103.874 27.3905C104.434 26.4224 105.198 25.6818 106.169 25.1684C107.139 24.6551 108.227 24.3984 109.432 24.3984C110.638 24.3984 111.727 24.6551 112.697 25.1684C113.668 25.6818 114.432 26.4224 114.991 27.3905C115.55 28.3438 115.829 29.4511 115.829 30.7125C115.829 31.9738 115.542 33.0885 114.969 34.0565C114.41 35.0098 113.638 35.7432 112.653 36.2565C111.683 36.7699 110.594 37.0265 109.388 37.0265ZM109.388 33.7705C110.109 33.7705 110.72 33.5065 111.219 32.9785C111.734 32.4505 111.991 31.6951 111.991 30.7125C111.991 29.7298 111.741 28.9745 111.241 28.4465C110.756 27.9185 110.153 27.6545 109.432 27.6545C108.698 27.6545 108.087 27.9185 107.602 28.4465C107.117 28.9598 106.874 29.7151 106.874 30.7125C106.874 31.6951 107.109 32.4505 107.58 32.9785C108.065 33.5065 108.668 33.7705 109.388 33.7705Z" fill="#04C1D6"/>
<path d="M61.7363 50.5974C61.7363 49.3211 61.9709 48.2005 62.4401 47.2358C62.924 46.2711 63.5767 45.5291 64.398 45.0096C65.2194 44.4902 66.1355 44.2305 67.1474 44.2305C68.0128 44.2305 68.7684 44.4085 69.4134 44.7648C70.0731 45.1209 70.5793 45.5885 70.9309 46.1672V44.4085H74.6927V56.8308H70.9309V55.0721C70.5646 55.6509 70.0513 56.1184 69.3916 56.4746C68.746 56.8308 67.9911 57.0089 67.1256 57.0089C66.1284 57.0089 65.2194 56.7492 64.398 56.2297C63.5767 55.6955 62.924 54.9459 62.4401 53.9813C61.9709 53.0017 61.7363 51.8738 61.7363 50.5974ZM70.9309 50.6197C70.9309 49.6698 70.6669 48.9204 70.1395 48.3712C69.6262 47.8221 68.9953 47.5475 68.2474 47.5475C67.4995 47.5475 66.8616 47.8221 66.3336 48.3712C65.8203 48.9055 65.564 49.6475 65.564 50.5974C65.564 51.5473 65.8203 52.3041 66.3336 52.8681C66.8616 53.4173 67.4995 53.6919 68.2474 53.6919C68.9953 53.6919 69.6262 53.4173 70.1395 52.8681C70.6669 52.319 70.9309 51.5695 70.9309 50.6197Z" fill="#04C1D6"/>
<path d="M81.1754 40.3564V56.8304H77.4136V40.3564H81.1754Z" fill="#04C1D6"/>
<path d="M90.0602 47.5694H88.037V56.8305H84.2752V47.5694H82.9111V44.4082H84.2752V44.052C84.2752 42.5233 84.7079 41.3657 85.5728 40.5791C86.4383 39.7777 87.7066 39.377 89.3787 39.377C89.6574 39.377 89.8626 39.3844 89.9943 39.3992V42.6272C89.2758 42.5827 88.7702 42.6866 88.4768 42.9389C88.1834 43.1912 88.037 43.6439 88.037 44.2969V44.4082H90.0602V47.5694Z" fill="#04C1D6"/>
<path d="M95.5893 46.4784C96.0291 45.7957 96.5795 45.2614 97.2392 44.8755C97.8988 44.4748 98.6326 44.2744 99.4387 44.2744V48.3039H98.4051C97.4667 48.3039 96.7623 48.5116 96.2931 48.9272C95.8239 49.3279 95.5893 50.0403 95.5893 51.0644V56.8303H91.8281V44.408H95.5893V46.4784Z" fill="#04C1D6"/>
<path d="M112.807 50.4193C112.807 50.7755 112.785 51.1466 112.741 51.5324H104.228C104.287 52.3042 104.529 52.8978 104.954 53.3134C105.394 53.7141 105.929 53.9144 106.56 53.9144C107.498 53.9144 108.151 53.5137 108.518 52.7123H112.521C112.316 53.5286 111.942 54.2632 111.4 54.9163C110.872 55.5693 110.204 56.0813 109.398 56.4523C108.591 56.8234 107.689 57.0089 106.692 57.0089C105.489 57.0089 104.419 56.7492 103.48 56.2297C102.542 55.7103 101.809 54.9682 101.281 54.0035C100.753 53.0388 100.489 51.9109 100.489 50.6197C100.489 49.3285 100.746 48.2005 101.259 47.2358C101.786 46.2711 102.52 45.5291 103.459 45.0096C104.397 44.4902 105.475 44.2305 106.692 44.2305C107.88 44.2305 108.936 44.4828 109.86 44.9874C110.783 45.492 111.502 46.2118 112.015 47.1468C112.543 48.0818 112.807 49.1727 112.807 50.4193ZM108.958 49.4175C108.958 48.7645 108.738 48.2451 108.298 47.8592C107.858 47.4733 107.308 47.2804 106.648 47.2804C106.017 47.2804 105.482 47.4659 105.043 47.8369C104.617 48.208 104.353 48.7348 104.251 49.4175H108.958Z" fill="#04C1D6"/>
<path d="M114.043 50.597C114.043 49.3206 114.278 48.2001 114.747 47.2354C115.231 46.2707 115.884 45.5287 116.705 45.0092C117.527 44.4898 118.443 44.23 119.455 44.23C120.261 44.23 120.994 44.4007 121.655 44.7421C122.329 45.0834 122.857 45.5435 123.238 46.1223V40.3564H127V56.8304H123.238V55.0494C122.886 55.6431 122.38 56.118 121.72 56.4742C121.075 56.8304 120.32 57.0085 119.455 57.0085C118.443 57.0085 117.527 56.7488 116.705 56.2293C115.884 55.695 115.231 54.9455 114.747 53.9808C114.278 53.0013 114.043 51.8733 114.043 50.597ZM123.238 50.6193C123.238 49.6694 122.975 48.9199 122.447 48.3708C121.933 47.8217 121.302 47.5471 120.555 47.5471C119.807 47.5471 119.169 47.8217 118.641 48.3708C118.127 48.9051 117.871 49.6471 117.871 50.597C117.871 51.5469 118.127 52.3037 118.641 52.8677C119.169 53.4169 119.807 53.6914 120.555 53.6914C121.302 53.6914 121.933 53.4169 122.447 52.8677C122.975 52.3186 123.238 51.5691 123.238 50.6193Z" fill="#04C1D6"/>
<path d="M7.08956 58.4383L6.59408 57.9912L8.16295 56.4056C8.28953 56.2775 8.40007 56.1508 8.49444 56.0251C8.59039 55.8978 8.6486 55.7836 8.66889 55.6824C8.69405 55.5729 8.68176 55.4643 8.63208 55.3566C8.58404 55.2472 8.49414 55.133 8.36232 55.0141C8.22703 54.8921 8.05435 54.796 7.84427 54.726C7.63419 54.656 7.413 54.609 7.18069 54.585L5.12342 56.6643L4.62793 56.2172L8.46616 52.3379L8.96163 52.7849L7.57287 54.1886C7.84756 54.2068 8.10115 54.2563 8.33375 54.3371C8.56635 54.418 8.76961 54.5369 8.94358 54.6939C9.26161 54.9808 9.41442 55.2902 9.40214 55.6219C9.38979 55.9537 9.21505 56.2899 8.87797 56.6307L7.08956 58.4383Z" fill="#04C1D6"/>
<path d="M12.0374 59.4179L9.54254 57.856C9.40795 58.0535 9.3217 58.2456 9.28377 58.4325C9.24709 58.6174 9.25132 58.7908 9.29642 58.953C9.33881 59.1111 9.41607 59.258 9.52819 59.3938C9.64231 59.5307 9.78631 59.6536 9.96011 59.7623C10.1905 59.9069 10.4513 60.0086 10.7425 60.0679C11.0371 60.1261 11.2626 60.1443 11.4191 60.122L11.4494 60.1408L11.0477 60.7303C10.8034 60.6868 10.5636 60.6286 10.3282 60.5551C10.0929 60.4817 9.86503 60.3759 9.64478 60.2378C9.08293 59.8863 8.74238 59.4679 8.62308 58.983C8.50514 58.4961 8.62708 57.9872 8.98903 57.4562C9.34704 56.9309 9.78178 56.6082 10.2933 56.4881C10.8068 56.3692 11.3101 56.4641 11.8033 56.7728C12.26 57.0587 12.5254 57.4054 12.5995 57.8128C12.6756 58.2215 12.5549 58.6587 12.2373 59.1246L12.0374 59.4179ZM11.7649 58.6565C11.9563 58.3715 12.0301 58.1046 11.9864 57.8557C11.9447 57.6081 11.7723 57.3893 11.4691 57.1996C11.164 57.0085 10.8623 56.9414 10.5641 56.9981C10.268 57.0561 10.0215 57.2041 9.82482 57.4419L11.7649 58.6565Z" fill="#04C1D6"/>
<path d="M14.7533 62.6914L14.1393 62.4182L14.3179 62.0473C14.2461 62.0579 14.1477 62.0749 14.0226 62.0973C13.9007 62.119 13.7869 62.129 13.6814 62.1272C13.5555 62.1296 13.4182 62.1161 13.2697 62.0879C13.1202 62.062 12.9557 62.0085 12.7762 61.9286C12.4457 61.7817 12.2156 61.553 12.0858 61.2427C11.956 60.9324 11.9686 60.6162 12.1237 60.2936C12.2507 60.0297 12.4124 59.8428 12.6086 59.7329C12.808 59.6224 13.0408 59.5695 13.3069 59.5742C13.5751 59.5801 13.8738 59.6359 14.2028 59.7417C14.5318 59.8481 14.8797 59.9727 15.2467 60.1155L15.2903 60.0256C15.3543 59.8921 15.3821 59.7705 15.3738 59.6612C15.3676 59.5524 15.3306 59.4525 15.2627 59.3614C15.1982 59.2744 15.1086 59.1957 14.994 59.1246C14.8794 59.0535 14.7554 58.9876 14.6219 58.9283C14.4599 58.8566 14.2694 58.7966 14.0502 58.7497C13.832 58.7005 13.5982 58.6672 13.3489 58.6496L13.3161 58.635L13.6027 58.0391C13.7381 58.0615 13.9286 58.1046 14.1742 58.1685C14.4199 58.2324 14.6532 58.3136 14.8743 58.412C15.1326 58.527 15.3469 58.6477 15.5173 58.7743C15.691 58.8995 15.8243 59.0423 15.9173 59.2022C16.0092 59.3591 16.0548 59.5295 16.054 59.7135C16.0531 59.898 15.9987 60.102 15.8907 60.3265L14.7533 62.6914ZM14.5519 61.5601L15.0186 60.5898C14.8254 60.5169 14.5958 60.4334 14.3296 60.34C14.0657 60.2477 13.8499 60.1884 13.682 60.1613C13.4817 60.1308 13.3024 60.1413 13.1439 60.1948C12.9864 60.2459 12.8651 60.36 12.7801 60.5369C12.6841 60.7361 12.6751 60.9154 12.753 61.074C12.8319 61.2304 13.0016 61.3661 13.2621 61.4825C13.4787 61.5789 13.6959 61.6277 13.9134 61.6283C14.1318 61.6271 14.3447 61.6042 14.5519 61.5601Z" fill="#04C1D6"/>
<path d="M16.6452 63.3345L16.0039 63.1165L17.8415 58.0674L18.4828 58.2851L16.6452 63.3345Z" fill="#04C1D6"/>
<path d="M19.9615 64.2472C19.8296 64.2455 19.6876 64.2349 19.5356 64.2155C19.386 64.1967 19.2542 64.172 19.1404 64.1414C18.7432 64.0351 18.4703 63.8523 18.3216 63.5937C18.1728 63.3351 18.1625 62.9813 18.2904 62.5323L18.852 60.5622L18.4095 60.4435L18.5589 59.9199L19.0014 60.038L19.3048 58.9736L19.9598 59.1494L19.6563 60.2137L21.0081 60.5763L20.8587 61.1L19.507 60.738L19.0257 62.4259C18.9703 62.6204 18.9314 62.7744 18.9092 62.8873C18.8876 62.9983 18.8911 63.1088 18.9198 63.2187C18.9456 63.3204 18.9967 63.4044 19.0731 63.4703C19.1523 63.5343 19.2836 63.5908 19.4671 63.6401C19.5739 63.6689 19.6895 63.6842 19.8138 63.6866C19.9388 63.6866 20.0297 63.6836 20.0864 63.6777L20.1213 63.6871L19.9615 64.2472Z" fill="#04C1D6"/>
<path d="M24.0806 65.028L23.4111 64.9158L23.7866 62.7577C23.8169 62.5831 23.8345 62.4186 23.8395 62.2634C23.8449 62.1059 23.8266 61.9795 23.7846 61.8843C23.7417 61.7791 23.6685 61.6945 23.5647 61.631C23.4614 61.5646 23.3207 61.517 23.1427 61.487C22.9598 61.4565 22.7612 61.4676 22.5468 61.52C22.3324 61.5728 22.1223 61.6504 21.9163 61.7533L21.4238 64.5837L20.7544 64.4715L21.673 59.1914L22.3425 59.3031L22.0101 61.2137C22.2478 61.0833 22.4862 60.991 22.7255 60.9352C22.9649 60.8799 23.202 60.8717 23.437 60.9111C23.8668 60.9828 24.173 61.1609 24.3557 61.4453C24.5383 61.7298 24.5893 62.1036 24.5086 62.5673L24.0806 65.028Z" fill="#04C1D6"/>
<path d="M30.1608 60.5803L30.1247 60.5797C30.0501 60.558 29.9527 60.5362 29.8324 60.5145C29.7121 60.4904 29.6063 60.4774 29.5148 60.4769C29.2236 60.4733 29.0117 60.5333 28.8791 60.6555C28.7489 60.776 28.6834 60.997 28.6828 61.3185L28.6825 61.4495L29.9062 61.463L29.9051 62.0073L28.703 61.9938L28.696 65.2979L28.0174 65.2903L28.0244 61.9867L27.5659 61.9814L27.567 61.4372L28.0255 61.4425L28.0258 61.3149C28.0267 60.8577 28.1466 60.5086 28.3854 60.2676C28.6241 60.0249 28.9685 59.9056 29.4185 59.9103C29.5702 59.9121 29.7061 59.9203 29.8264 59.9356C29.9491 59.9508 30.061 59.9679 30.162 59.9873L30.1608 60.5803Z" fill="#04C1D6"/>
<path d="M33.8194 63.1159C33.8797 63.7412 33.7595 64.2478 33.4588 64.6357C33.1582 65.0242 32.7263 65.2405 32.1632 65.2845C31.5952 65.3292 31.126 65.184 30.7556 64.849C30.3877 64.5134 30.1735 64.0333 30.1133 63.4085C30.0531 62.7838 30.1721 62.2772 30.4704 61.8893C30.7707 61.4985 31.2049 61.281 31.7729 61.2363C32.3361 61.1917 32.8029 61.3386 33.1735 61.6759C33.5439 62.0109 33.7592 62.4911 33.8194 63.1159ZM33.1221 63.1711C33.0742 62.6745 32.9368 62.3136 32.71 62.0897C32.4828 61.8628 32.1884 61.7641 31.8265 61.7923C31.4599 61.8217 31.1864 61.9651 31.0061 62.2243C30.8279 62.4799 30.7628 62.8567 30.8107 63.3533C30.8571 63.834 30.9941 64.1914 31.2218 64.4247C31.4494 64.6557 31.7452 64.7574 32.1095 64.7286C32.469 64.6998 32.7388 64.5552 32.9189 64.2942C33.1011 64.0309 33.1689 63.6566 33.1221 63.1711Z" fill="#04C1D6"/>
<path d="M36.8694 61.319L36.834 61.3254C36.7302 61.3207 36.6301 61.3225 36.5338 61.3307C36.4394 61.336 36.3285 61.3501 36.201 61.373C35.9956 61.4101 35.8065 61.49 35.6336 61.6128C35.4602 61.7327 35.2993 61.8779 35.1509 62.0477L35.7087 64.7324L35.043 64.8523L34.2573 61.071L34.923 60.9505L35.0391 61.5094C35.2612 61.2584 35.4639 61.0733 35.6473 60.9534C35.8324 60.8312 36.03 60.7506 36.2401 60.713C36.3558 60.6919 36.4403 60.6801 36.4936 60.6778C36.5466 60.6731 36.6265 60.669 36.7336 60.666L36.8694 61.319Z" fill="#04C1D6"/>
<path d="M43.5358 62.4708L42.9091 62.7047L42.7494 62.3227C42.7088 62.3797 42.6543 62.4596 42.5859 62.5613C42.5189 62.6606 42.4488 62.7464 42.3755 62.8181C42.2911 62.9069 42.1874 62.9921 42.0646 63.075C41.9426 63.1602 41.79 63.2372 41.6068 63.3053C41.2695 63.4311 40.9387 63.4311 40.6147 63.3042C40.2907 63.1778 40.0594 62.9486 39.9207 62.6171C39.8071 62.345 39.7757 62.1035 39.8267 61.8913C39.8789 61.6762 39.9976 61.4787 40.1831 61.2983C40.3707 61.1167 40.6171 60.9498 40.9223 60.7958C41.2274 60.6424 41.5597 60.489 41.9189 60.335L41.88 60.2422C41.8227 60.1052 41.7497 60.0012 41.6607 59.9307C41.574 59.859 41.473 59.8149 41.3577 59.7984C41.2477 59.7826 41.1266 59.7896 40.9944 59.819C40.8621 59.849 40.7278 59.8889 40.5915 59.9395C40.4262 60.0012 40.2508 60.0917 40.0654 60.2104C39.8791 60.3268 39.6941 60.4649 39.5105 60.6253L39.477 60.6377L39.2207 60.0241C39.3302 59.9465 39.493 59.8449 39.7093 59.7197C39.9256 59.5945 40.1465 59.4899 40.3722 59.4052C40.6358 59.3071 40.8737 59.243 41.086 59.2136C41.2996 59.1807 41.4989 59.1878 41.6839 59.2354C41.8658 59.2812 42.0263 59.3688 42.1653 59.4975C42.3043 59.6262 42.4222 59.8061 42.5188 60.037L43.5358 62.4708ZM42.5401 61.8214L42.1228 60.8234C41.9352 60.9057 41.7151 61.0062 41.4627 61.1249C41.2124 61.243 41.0199 61.3512 40.8849 61.4482C40.7245 61.5651 40.6104 61.6968 40.5425 61.8431C40.4738 61.9877 40.4774 62.1511 40.5534 62.3327C40.6393 62.5384 40.7689 62.6694 40.9423 62.7259C41.1148 62.7799 41.334 62.7576 41.5999 62.6583C41.8211 62.576 42.0063 62.4602 42.1555 62.3103C42.3038 62.1581 42.432 61.9953 42.5401 61.8214Z" fill="#04C1D6"/>
<path d="M45.3155 61.6103L44.7132 61.9035L42.1255 57.1221L42.7279 56.8291L45.3155 61.6103Z" fill="#04C1D6"/>
<path d="M47.0819 60.6603L46.5004 60.9894L43.6045 56.3697L44.186 56.041L47.0819 60.6603Z" fill="#04C1D6"/>
<path d="M84.5 67C84.5 66.1716 85.1716 65.5 86 65.5H125C125.828 65.5 126.5 66.1716 126.5 67V80C126.5 80.8284 125.828 81.5 125 81.5H86C85.1716 81.5 84.5 80.8284 84.5 80V67Z" fill="white" stroke="#04C1D6"/>
<path d="M91 70H94.773C95.499 70 96.0673 70.1797 96.478 70.539C96.8887 70.8983 97.094 71.419 97.094 72.101C97.094 72.4457 97.0133 72.761 96.852 73.047C96.6907 73.3257 96.4707 73.542 96.192 73.696C96.5733 73.8353 96.8593 74.048 97.05 74.334C97.2407 74.6127 97.336 74.9793 97.336 75.434C97.336 75.896 97.2297 76.2993 97.017 76.644C96.8117 76.9813 96.5257 77.2417 96.159 77.425C95.7997 77.601 95.4 77.689 94.96 77.689H91V70ZM94.454 73.124C94.7473 73.124 94.9783 73.0507 95.147 72.904C95.3157 72.7573 95.4 72.5227 95.4 72.2C95.4 71.848 95.3157 71.606 95.147 71.474C94.9857 71.342 94.7363 71.276 94.399 71.276H92.672V73.124H94.454ZM94.553 76.413C94.9123 76.413 95.1837 76.3433 95.367 76.204C95.5577 76.0573 95.653 75.8043 95.653 75.445C95.653 75.0783 95.554 74.8143 95.356 74.653C95.1653 74.4917 94.8793 74.411 94.498 74.411H92.672V76.413H94.553Z" fill="#555555"/>
<path d="M99.3725 70H104.707V71.397H101.044V73.179H103.739V74.521H101.044V76.292H104.707V77.689H99.3725V70Z" fill="#555555"/>
<path d="M108.454 71.397H106.21V70H112.37V71.397H110.126V77.689H108.454V71.397Z" fill="#555555"/>
<path d="M115.69 70H117.329L120.398 77.689H118.693L118.033 76.017H114.986L114.326 77.689H112.61L115.69 70ZM117.593 74.686L116.504 71.76L115.415 74.686H117.593Z" fill="#555555"/>
</svg>
