<svg width="145" height="79" viewBox="0 0 145 79" fill="none" xmlns="http://www.w3.org/2000/svg">
<path d="M79.795 27.5855C81.4061 27.5855 82.699 28.1216 83.6731 29.1938C84.6464 30.2492 85.1331 31.7067 85.1331 33.5662V41.7581H80.8523V34.1442C80.8523 33.206 80.6093 32.4773 80.1219 31.958C79.6352 31.4386 78.9807 31.179 78.1577 31.179C77.3354 31.179 76.6808 31.4386 76.1935 31.958C75.7068 32.4773 75.4638 33.206 75.4638 34.1442V41.7581H71.1574V23.1629H75.4638V29.621C75.9001 29.0012 76.4962 28.507 77.2514 28.1384C78.0066 27.7698 78.8545 27.5855 79.795 27.5855Z" fill="#04C1D6"/>
<path d="M101.371 34.5211C101.371 34.9231 101.346 35.3419 101.296 35.7775H91.55C91.6172 36.6486 91.8944 37.3187 92.3811 37.7878C92.8852 38.2401 93.4975 38.4663 94.2198 38.4663C95.2938 38.4663 96.041 38.014 96.4606 37.1093H101.044C100.809 38.0307 100.381 38.8599 99.7593 39.5971C99.1551 40.3342 98.3912 40.9122 97.4682 41.331C96.5445 41.7498 95.512 41.9592 94.3708 41.9592C92.994 41.9592 91.7682 41.666 90.6941 41.0796C89.6194 40.4933 88.7803 39.6557 88.1761 38.5668C87.5713 37.4779 87.2692 36.2047 87.2692 34.7472C87.2692 33.2898 87.5632 32.0165 88.1506 30.9276C88.7554 29.8387 89.5945 29.0012 90.6686 28.4148C91.7434 27.8285 92.9772 27.5353 94.3708 27.5353C95.7302 27.5353 96.9392 27.8201 97.9965 28.3897C99.0545 28.9593 99.8768 29.7717 100.465 30.8271C101.069 31.8826 101.371 33.1138 101.371 34.5211ZM96.964 33.3903C96.964 32.6532 96.7123 32.0668 96.2088 31.6313C95.7054 31.1957 95.0757 30.9779 94.3205 30.9779C93.5982 30.9779 92.9859 31.1874 92.4818 31.6061C91.9951 32.0249 91.693 32.6196 91.5755 33.3903H96.964Z" fill="#04C1D6"/>
<path d="M107.949 23.1629V41.7581H103.643V23.1629H107.949Z" fill="#04C1D6"/>
<path d="M115.376 23.1629V41.7581H111.069V23.1629H115.376Z" fill="#04C1D6"/>
<path d="M124.892 41.9592C123.516 41.9592 122.273 41.666 121.166 41.0796C120.074 40.4933 119.21 39.6557 118.572 38.5668C117.951 37.4779 117.64 36.2047 117.64 34.7472C117.64 33.3065 117.959 32.0417 118.597 30.9528C119.235 29.8471 120.108 29.0012 121.216 28.4148C122.324 27.8285 123.566 27.5353 124.942 27.5353C126.319 27.5353 127.562 27.8285 128.669 28.4148C129.778 29.0012 130.65 29.8471 131.289 30.9528C131.927 32.0417 132.245 33.3065 132.245 34.7472C132.245 36.188 131.918 37.4612 131.263 38.5668C130.626 39.6557 129.744 40.4933 128.619 41.0796C127.511 41.666 126.269 41.9592 124.892 41.9592ZM124.892 38.2401C125.715 38.2401 126.412 37.9386 126.982 37.3355C127.57 36.7324 127.864 35.8697 127.864 34.7472C127.864 33.6248 127.579 32.7621 127.007 32.159C126.453 31.5559 125.765 31.2544 124.942 31.2544C124.103 31.2544 123.406 31.5559 122.853 32.159C122.299 32.7453 122.022 33.6081 122.022 34.7472C122.022 35.8697 122.29 36.7324 122.827 37.3355C123.382 37.9386 124.07 38.2401 124.892 38.2401Z" fill="#04C1D6"/>
<path d="M70.4861 57.46C70.4861 56.0022 70.754 54.7223 71.2897 53.6204C71.8421 52.5186 72.5873 51.671 73.5251 51.0776C74.4629 50.4843 75.5088 50.1877 76.6641 50.1877C77.6522 50.1877 78.5148 50.3911 79.2512 50.798C80.0044 51.2048 80.5824 51.7388 80.9838 52.3999V50.3911H85.2788V64.5799H80.9838V62.571C80.5656 63.2322 79.9796 63.7661 79.2264 64.173C78.4893 64.5799 77.6274 64.7833 76.6392 64.7833C75.5007 64.7833 74.4629 64.4866 73.5251 63.8933C72.5873 63.2831 71.8421 62.427 71.2897 61.3251C70.754 60.2062 70.4861 58.9179 70.4861 57.46ZM80.9838 57.4855C80.9838 56.4005 80.6824 55.5445 80.0803 54.9172C79.4942 54.29 78.7739 53.9764 77.92 53.9764C77.0662 53.9764 76.3378 54.29 75.735 54.9172C75.1489 55.5275 74.8563 56.3751 74.8563 57.46C74.8563 58.545 75.1489 59.4095 75.735 60.0537C76.3378 60.6809 77.0662 60.9945 77.92 60.9945C78.7739 60.9945 79.4942 60.6809 80.0803 60.0537C80.6824 59.4265 80.9838 58.5704 80.9838 57.4855Z" fill="#04C1D6"/>
<path d="M92.6806 45.7632V64.5799H88.3856V45.7632H92.6806Z" fill="#04C1D6"/>
<path d="M102.824 54.0018H100.515V64.5799H96.2196V54.0018H94.6622V50.3911H96.2196V49.9842C96.2196 48.2382 96.7137 46.9159 97.7012 46.0175C98.6893 45.1021 100.137 44.6444 102.046 44.6444C102.365 44.6444 102.599 44.6528 102.749 44.6698V48.3568C101.929 48.306 101.352 48.4246 101.017 48.7128C100.682 49.001 100.515 49.5181 100.515 50.2639V50.3911H102.824V54.0018Z" fill="#04C1D6"/>
<path d="M109.137 52.7559C109.639 51.9761 110.268 51.3658 111.021 50.9251C111.774 50.4673 112.612 50.2385 113.532 50.2385V54.841H112.352C111.281 54.841 110.477 55.0783 109.941 55.5529C109.405 56.0106 109.137 56.8243 109.137 57.994V64.5799H104.843V50.3911H109.137V52.7559Z" fill="#04C1D6"/>
<path d="M128.796 57.2566C128.796 57.6634 128.771 58.0873 128.72 58.528H119.001C119.068 59.4096 119.344 60.0876 119.83 60.5622C120.332 61.0199 120.943 61.2488 121.663 61.2488C122.734 61.2488 123.48 60.7911 123.898 59.8757H128.469C128.235 60.8081 127.808 61.6472 127.189 62.3931C126.586 63.1389 125.824 63.7238 124.903 64.1476C123.982 64.5714 122.952 64.7833 121.813 64.7833C120.441 64.7833 119.219 64.4866 118.147 63.8933C117.075 63.3 116.238 62.4524 115.636 61.3505C115.033 60.2486 114.731 58.9603 114.731 57.4855C114.731 56.0106 115.025 54.7223 115.611 53.6204C116.213 52.5186 117.051 51.671 118.122 51.0776C119.193 50.4843 120.424 50.1877 121.813 50.1877C123.17 50.1877 124.376 50.4759 125.43 51.0522C126.485 51.6286 127.305 52.4508 127.891 53.5187C128.494 54.5867 128.796 55.8327 128.796 57.2566ZM124.401 56.1123C124.401 55.3665 124.15 54.7732 123.647 54.3324C123.145 53.8917 122.517 53.6713 121.764 53.6713C121.043 53.6713 120.433 53.8832 119.93 54.307C119.444 54.7308 119.143 55.3326 119.026 56.1123H124.401Z" fill="#04C1D6"/>
<path d="M130.207 57.46C130.207 56.0022 130.475 54.7223 131.011 53.6204C131.563 52.5186 132.308 51.671 133.246 51.0776C134.184 50.4843 135.231 50.1877 136.386 50.1877C137.306 50.1877 138.143 50.3826 138.897 50.7725C139.667 51.1624 140.27 51.6879 140.705 52.3491V45.7632H145V64.5799H140.705V62.5457C140.304 63.2237 139.726 63.7661 138.972 64.173C138.236 64.5799 137.373 64.7833 136.386 64.7833C135.231 64.7833 134.184 64.4866 133.246 63.8933C132.308 63.2831 131.563 62.427 131.011 61.3251C130.475 60.2063 130.207 58.9179 130.207 57.46ZM140.705 57.4855C140.705 56.4005 140.404 55.5445 139.801 54.9172C139.215 54.29 138.495 53.9764 137.641 53.9764C136.787 53.9764 136.059 54.29 135.456 54.9172C134.87 55.5275 134.577 56.3751 134.577 57.46C134.577 58.545 134.87 59.4095 135.456 60.0537C136.059 60.6809 136.787 60.9946 137.641 60.9946C138.495 60.9946 139.215 60.6809 139.801 60.0537C140.404 59.4265 140.705 58.5704 140.705 57.4855Z" fill="#04C1D6"/>
<path d="M55.1892 45.8277C55.1892 39.6734 59.0439 34.1781 64.8307 32.0829L64.4982 65.1632C59.357 65.1632 55.1892 60.9954 55.1892 55.8541V45.8277Z" fill="#04C1D6"/>
<path d="M18.125 4.36661H27.5231V27.1907H18.125V4.36661Z" fill="#04C1D6"/>
<path fill-rule="evenodd" clip-rule="evenodd" d="M15.4398 4.79504C6.17587 10.5008 0 20.7368 0 32.4153C0 50.3178 14.5128 64.8307 32.4154 64.8307C50.3178 64.8307 64.8307 50.3178 64.8307 32.4153C64.8307 14.5128 50.3178 0 32.4154 0C31.6736 0 30.9376 0.0249117 30.2083 0.0739499V9.73026C30.9346 9.66051 31.6708 9.6248 32.4154 9.6248C45.0022 9.6248 55.2059 19.8285 55.2059 32.4153C55.2059 45.0022 45.0022 55.2059 32.4154 55.2059C19.8285 55.2059 9.62478 45.0022 9.62478 32.4153C9.62478 26.5719 11.8239 21.2421 15.4398 17.2084V4.79504ZM18.125 14.6606C20.8207 12.4881 24.0213 10.9171 27.5232 10.1512V0.366749C24.1978 0.870147 21.0382 1.87876 18.125 3.31187V14.6606Z" fill="#04C1D6"/>
<path fill-rule="evenodd" clip-rule="evenodd" d="M26.8519 17.7925C22.0321 17.7925 18.125 21.6997 18.125 26.5194V38.6027C18.125 43.4224 22.0321 47.3296 26.8519 47.3296V31.2185C26.8519 28.994 28.6552 27.1907 30.8796 27.1907H33.5648C35.7893 27.1907 37.5926 28.994 37.5926 31.2185V47.3296H38.2639C43.0836 47.3296 46.9907 43.4224 46.9907 38.6027V26.5194C46.9907 21.6997 43.0836 17.7925 38.2639 17.7925H26.8519Z" fill="#04C1D6"/>
<path d="M8.09436 66.4165L7.52864 65.9059L9.31984 64.0947C9.46441 63.9486 9.59056 63.8037 9.69831 63.6602C9.80792 63.5148 9.87433 63.3843 9.89754 63.2687C9.92624 63.1437 9.91222 63.0197 9.85549 62.8966C9.80063 62.7716 9.69797 62.6412 9.54752 62.5054C9.39305 62.366 9.19588 62.2563 8.95602 62.1764C8.71616 62.0964 8.46361 62.0427 8.19837 62.0153L5.84954 64.3903L5.28382 63.8797L9.66604 59.4486L10.2318 59.9592L8.64616 61.5625C8.95976 61.5833 9.24934 61.6398 9.51489 61.7322C9.78044 61.8246 10.0125 61.9604 10.2111 62.1397C10.5742 62.4674 10.7487 62.8207 10.7347 63.1997C10.7206 63.5787 10.5211 63.9627 10.1362 64.3519L8.09436 66.4165Z" fill="#04C1D6"/>
<path d="M13.7436 67.535L10.8951 65.7509C10.7414 65.9765 10.6429 66.1959 10.5996 66.4093C10.5578 66.6206 10.5626 66.8188 10.6141 67.0042C10.6625 67.1844 10.7507 67.3521 10.8787 67.5073C11.009 67.6639 11.1734 67.8043 11.3718 67.9286C11.6349 68.0933 11.9327 68.2095 12.2651 68.2772C12.6014 68.3441 12.8589 68.3648 13.0376 68.3393L13.0722 68.3609L12.6135 69.0343C12.3346 68.9846 12.0608 68.9177 11.7921 68.8338C11.5234 68.7499 11.2633 68.6291 11.0118 68.4716C10.3703 68.0698 9.98149 67.592 9.84531 67.0381C9.71061 66.4821 9.84988 65.9007 10.2631 65.2942C10.6719 64.6942 11.1682 64.3256 11.7522 64.1884C12.3385 64.0527 12.9132 64.1611 13.4762 64.5137C13.9976 64.8403 14.3007 65.2363 14.3853 65.7016C14.4722 66.1684 14.3344 66.6679 13.9718 67.1999L13.7436 67.535ZM13.4324 66.6653C13.6509 66.3398 13.7352 66.0349 13.6853 65.7506C13.6377 65.4677 13.4408 65.2179 13.0947 65.0011C12.7463 64.7829 12.4019 64.7062 12.0614 64.771C11.7233 64.8373 11.4419 65.0063 11.2173 65.278L13.4324 66.6653Z" fill="#04C1D6"/>
<path d="M16.8443 71.2743L16.1434 70.962L16.3472 70.538C16.2653 70.5505 16.153 70.5697 16.0101 70.5955C15.8709 70.62 15.741 70.6314 15.6205 70.6296C15.4768 70.632 15.3201 70.617 15.1505 70.5847C14.9798 70.5549 14.792 70.4943 14.5871 70.403C14.2097 70.2349 13.947 69.9737 13.7988 69.6192C13.6506 69.2648 13.665 68.9035 13.8421 68.5352C13.9871 68.2335 14.1717 68.02 14.3957 67.8948C14.6234 67.7684 14.8891 67.7079 15.1929 67.7134C15.4992 67.72 15.8402 67.7839 16.2158 67.9051C16.5915 68.0262 16.9888 68.1686 17.4078 68.3321L17.4574 68.2287C17.5305 68.0767 17.5623 67.938 17.5528 67.8126C17.5458 67.6883 17.5035 67.5743 17.426 67.4705C17.3523 67.3714 17.2501 67.2811 17.1192 67.1998C16.9884 67.1185 16.8468 67.0438 16.6944 66.9759C16.5095 66.8936 16.2919 66.8255 16.0416 66.7717C15.7925 66.7156 15.5256 66.6775 15.2409 66.6574L15.2035 66.6407L15.5307 65.9601C15.6853 65.9857 15.9028 66.0349 16.1832 66.1079C16.4637 66.1809 16.7301 66.2736 16.9825 66.386C17.2774 66.5174 17.5221 66.6552 17.7167 66.7996C17.9149 66.9427 18.0672 67.1057 18.1734 67.2886C18.2783 67.468 18.3303 67.6628 18.3294 67.8729C18.3285 68.0831 18.2663 68.3164 18.143 68.573L16.8443 71.2743ZM16.6145 69.9821L17.1473 68.8738C16.9267 68.7899 16.6645 68.6948 16.3607 68.5883C16.0594 68.4829 15.8129 68.415 15.6213 68.3844C15.3926 68.3489 15.1878 68.3615 15.0069 68.4223C14.8271 68.4807 14.6886 68.6109 14.5916 68.8128C14.4819 69.0409 14.4716 69.2454 14.5606 69.4263C14.6507 69.6049 14.8444 69.7605 15.1418 69.8929C15.3892 70.0031 15.6371 70.0587 15.8854 70.0597C16.1349 70.0583 16.3779 70.0324 16.6145 69.9821Z" fill="#04C1D6"/>
<path d="M19.0044 72.0089L18.2722 71.7602L20.3702 65.993L21.1024 66.2416L19.0044 72.0089Z" fill="#04C1D6"/>
<path d="M22.7905 73.0518C22.6399 73.0495 22.4778 73.0373 22.3043 73.0153C22.1334 72.9939 21.983 72.9658 21.853 72.931C21.3996 72.8094 21.088 72.6008 20.9182 72.3052C20.7483 72.0096 20.7365 71.6054 20.8826 71.0928L21.5238 68.8427L21.0186 68.7072L21.1891 68.1087L21.6943 68.2441L22.0408 67.0282L22.7886 67.2287L22.4421 68.4446L23.9854 68.8584L23.8149 69.4569L22.2715 69.0432L21.7221 70.9713C21.6588 71.1935 21.6144 71.3692 21.5891 71.4983C21.5644 71.6249 21.5684 71.751 21.6011 71.8767C21.6307 71.9933 21.689 72.0892 21.7761 72.1642C21.8666 72.2373 22.0166 72.302 22.226 72.3582C22.348 72.3909 22.48 72.4086 22.6219 72.4113C22.7646 72.4115 22.8683 72.4081 22.9331 72.401L22.9729 72.4116L22.7905 73.0518Z" fill="#04C1D6"/>
<path d="M27.4937 73.9428L26.7293 73.815L27.158 71.3497C27.1926 71.1508 27.2128 70.9627 27.2185 70.7855C27.2246 70.6057 27.2037 70.4612 27.1557 70.3521C27.1068 70.2323 27.0232 70.1358 26.9048 70.0629C26.7868 69.9873 26.6262 69.9325 26.4229 69.8985C26.2141 69.8636 25.9874 69.8762 25.7426 69.9363C25.4979 69.9964 25.2578 70.0852 25.0226 70.2027L24.4605 73.4354L23.6961 73.3076L24.7448 67.2763L25.5092 67.4042L25.1298 69.5864C25.4011 69.4377 25.6734 69.3317 25.9466 69.2684C26.2199 69.205 26.4907 69.1958 26.759 69.2407C27.2496 69.3228 27.5992 69.5262 27.8078 69.8509C28.0163 70.1757 28.0745 70.6029 27.9824 71.1326L27.4937 73.9428Z" fill="#04C1D6"/>
<path d="M34.4355 68.8625L34.3943 68.8621C34.3092 68.8375 34.1979 68.8127 34.0606 68.7876C33.9233 68.7599 33.8024 68.7454 33.698 68.7443C33.3655 68.7407 33.1236 68.8089 32.9722 68.9489C32.8235 69.0863 32.7488 69.3386 32.748 69.7059L32.7477 69.8554L34.1449 69.8707L34.1436 70.4924L32.7711 70.4775L32.7632 74.2512L31.9884 74.2427L31.9963 70.469L31.4728 70.4633L31.4741 69.8415L31.9976 69.8473L31.9979 69.7017C31.999 69.1796 32.1358 68.781 32.4084 68.5059C32.681 68.2282 33.0742 68.0921 33.5881 68.0977C33.7612 68.0996 33.9164 68.1092 34.0537 68.1264C34.1938 68.1437 34.3216 68.1635 34.4369 68.1857L34.4355 68.8625Z" fill="#04C1D6"/>
<path d="M38.613 71.7591C38.6818 72.4729 38.5445 73.0514 38.2013 73.4948C37.8581 73.9381 37.3649 74.1852 36.722 74.2359C36.0735 74.2871 35.5378 74.1212 35.115 73.7383C34.6949 73.3552 34.4504 72.8068 34.3816 72.093C34.3129 71.3792 34.4487 70.8007 34.7892 70.3576C35.1322 69.9116 35.628 69.663 36.2764 69.6119C36.9194 69.5611 37.4524 69.7285 37.8756 70.114C38.2984 70.4969 38.5442 71.0453 38.613 71.7591ZM37.8168 71.8219C37.7621 71.2545 37.6053 70.8427 37.3463 70.5865C37.087 70.3277 36.7508 70.2146 36.3376 70.2472C35.919 70.2803 35.6068 70.4445 35.4009 70.74C35.1975 71.0327 35.1232 71.4627 35.1778 72.0301C35.2307 72.5792 35.3872 72.9871 35.6472 73.2537C35.907 73.5178 36.2449 73.6334 36.6607 73.6005C37.0712 73.5682 37.3792 73.4029 37.5848 73.1048C37.7929 72.8038 37.8702 72.3762 37.8168 71.8219Z" fill="#04C1D6"/>
<path d="M42.0947 69.7062L42.0543 69.7135C41.9358 69.7082 41.8215 69.7101 41.7116 69.7193C41.6038 69.7254 41.4772 69.7415 41.3316 69.7678C41.0972 69.8102 40.8812 69.9014 40.6838 70.0413C40.4858 70.1787 40.3021 70.3443 40.1327 70.5381L40.7695 73.6046L40.0095 73.7419L39.1125 69.4225L39.8725 69.2852L40.005 69.9232C40.2586 69.6367 40.4901 69.425 40.6994 69.2882C40.9108 69.1484 41.1364 69.0568 41.3763 69.0135C41.5084 68.9898 41.6049 68.9764 41.6657 68.9733C41.7261 68.9679 41.8175 68.9635 41.9398 68.9599L42.0947 69.7062Z" fill="#04C1D6"/>
<path d="M49.7064 71.0215L48.9909 71.2886L48.8086 70.8522C48.7622 70.9176 48.7 71.0086 48.622 71.1253C48.5455 71.2387 48.4654 71.3364 48.3817 71.4185C48.2853 71.5195 48.167 71.6173 48.0267 71.7121C47.8875 71.8093 47.7132 71.8969 47.5041 71.975C47.1189 72.1187 46.7413 72.1184 46.3714 71.9739C46.0014 71.8294 45.7373 71.5677 45.579 71.1887C45.4493 70.8782 45.4135 70.602 45.4716 70.3599C45.5312 70.1144 45.6668 69.8885 45.8785 69.6823C46.0927 69.4752 46.3741 69.284 46.7225 69.1088C47.0709 68.9335 47.4502 68.758 47.8604 68.5823L47.816 68.476C47.7506 68.3195 47.6671 68.2009 47.5656 68.1201C47.4666 68.0384 47.3513 67.9882 47.2196 67.9695C47.0941 67.9514 46.9558 67.9592 46.8048 67.9929C46.6538 68.0267 46.5005 68.0726 46.3449 68.1307C46.1561 68.2011 45.9559 68.3041 45.7442 68.4397C45.5315 68.5728 45.3203 68.7307 45.1106 68.9135L45.0724 68.9278L44.7798 68.2274C44.9048 68.1383 45.0907 68.0223 45.3376 67.8793C45.5845 67.7363 45.8368 67.6167 46.0944 67.5205C46.3954 67.4081 46.6671 67.335 46.9094 67.3011C47.1533 67.2635 47.3808 67.2718 47.5921 67.326C47.7998 67.3785 47.983 67.4782 48.1417 67.6253C48.3005 67.7723 48.435 67.9779 48.5453 68.2419L49.7064 71.0215ZM48.5696 70.2802L48.0932 69.1397C47.879 69.2338 47.6277 69.3488 47.3395 69.4846C47.0538 69.6195 46.8339 69.7426 46.6799 69.8537C46.4968 69.9871 46.3664 70.1375 46.2889 70.3049C46.2104 70.4698 46.2146 70.6562 46.3014 70.864C46.3994 71.0987 46.5474 71.2483 46.7454 71.3129C46.9424 71.375 47.1926 71.3494 47.4962 71.2361C47.7487 71.1418 47.9602 71.0092 48.1305 70.8383C48.2999 70.6648 48.4462 70.4788 48.5696 70.2802Z" fill="#04C1D6"/>
<path d="M51.7383 70.0397L51.0506 70.3743L48.0961 64.9131L48.7838 64.5785L51.7383 70.0397Z" fill="#04C1D6"/>
<path d="M53.7547 68.9542L53.0908 69.3297L49.7844 64.0533L50.4483 63.6779L53.7547 68.9542Z" fill="#04C1D6"/>
</svg>
