<svg width="221" height="89" viewBox="0 0 221 89" fill="none" xmlns="http://www.w3.org/2000/svg">
<rect x="16" y="20" width="60" height="14" rx="7" fill="#EEF7FF"/>
<rect x="56" y="6" width="60" height="14" rx="7" fill="#EEF7FF"/>
<rect x="132" y="20" width="60" height="14" rx="7" fill="#EEF7FF"/>
<rect x="132" y="34" width="81" height="14" rx="7" fill="#EEF7FF"/>
<rect x="116" y="62" width="85" height="14" rx="7" fill="#EEF7FF"/>
<rect x="207" y="62" width="14" height="14" rx="7" fill="#EEF7FF"/>
<path fill-rule="evenodd" clip-rule="evenodd" d="M137 48C133.134 48 130 51.134 130 55C130 58.866 133.134 62 137 62H183C183.695 62 184.366 61.8987 185 61.7101C182.109 60.8496 180 58.171 180 55C180 51.829 182.109 49.1504 185 48.2899C184.366 48.1013 183.695 48 183 48H137Z" fill="#EEF7FF"/>
<path fill-rule="evenodd" clip-rule="evenodd" d="M49.5 47.9824C49.6652 47.9941 49.8319 48 50 48H96C99.866 48 103 44.866 103 41C103 37.134 99.866 34 96 34H50C49.8319 34 49.6652 34.0059 49.5 34.0176C53.1326 34.274 56 37.3021 56 41C56 44.6979 53.1326 47.726 49.5 47.9824Z" fill="#EEF7FF"/>
<rect y="48" width="76" height="14" rx="7" fill="#EEF7FF"/>
<rect x="40" y="62" width="76" height="14" rx="7" fill="#EEF7FF"/>
<circle cx="108.5" cy="44.5" r="44.5" fill="#00D2B9"/>
<circle cx="108.5" cy="44.5" r="41.5" fill="white"/>
<path fill-rule="evenodd" clip-rule="evenodd" d="M147.984 45.6223C146.192 45.8713 144.361 46 142.5 46C120.685 46 103 28.3153 103 6.50001C103 6.12466 103.005 5.75053 103.016 5.37769C83.7962 8.04732 69 24.5457 69 44.5C69 66.3153 86.6848 84 108.5 84C129.94 84 147.39 66.9186 147.984 45.6223Z" fill="#EEF7FF"/>
<path d="M118.922 31.5461C120.961 29.5051 124.269 29.5043 126.31 31.5445C128.348 33.5831 128.349 36.8879 126.312 38.9278L104.729 60.5381C103.631 61.6377 101.864 61.6849 100.709 60.6454L87.1542 48.4501C84.8962 46.4185 84.8037 42.9088 86.9514 40.761C88.8945 38.818 92.0002 38.6818 94.1058 40.4474L102.77 47.7125L118.922 31.5461ZM123.854 33.9974C123.17 33.3094 122.058 33.3079 121.373 33.9941L102.77 52.63L91.5711 43.3186C90.896 42.7573 89.9067 42.7938 89.2748 43.4033C88.546 44.1063 88.5782 45.2834 89.3443 45.9455L101.08 56.0872C102.033 56.9103 103.459 56.8584 104.349 55.9682L123.849 36.4682C124.531 35.7864 124.533 34.6816 123.854 33.9974Z" fill="#00D2B9"/>
</svg>
