<svg width="97" height="111" viewBox="0 0 97 111" fill="none" xmlns="http://www.w3.org/2000/svg">
<path d="M82.2129 68.2675C82.2129 59.0996 87.9551 50.9135 96.5754 47.7924L96.0801 97.0706C88.4215 97.0706 82.2129 90.862 82.2129 83.2033V68.2675Z" fill="white"/>
<path d="M27 6.5047H41V40.5047H27V6.5047Z" fill="white"/>
<path fill-rule="evenodd" clip-rule="evenodd" d="M23 7.14295C9.19991 15.6426 0 30.8907 0 48.2876C0 74.9562 21.6191 96.5753 48.2877 96.5753C74.9562 96.5753 96.5753 74.9562 96.5753 48.2876C96.5753 21.6191 74.9562 0 48.2877 0C47.1827 0 46.0864 0.03711 45 0.11016V14.4947C46.0819 14.3908 47.1786 14.3376 48.2877 14.3376C67.0378 14.3376 82.2377 29.5376 82.2377 48.2876C82.2377 67.0377 67.0378 82.2377 48.2877 82.2377C29.5376 82.2377 14.3376 67.0377 14.3376 48.2876C14.3376 39.5829 17.6136 31.6434 23 25.6346V7.14295ZM27 21.8392C31.0156 18.603 35.7835 16.2627 41 15.1217V0.54633C36.0463 1.29622 31.3396 2.7987 27 4.93355V21.8392Z" fill="white"/>
<path fill-rule="evenodd" clip-rule="evenodd" d="M40 26.5047C32.8203 26.5047 27 32.325 27 39.5047V57.5047C27 64.6844 32.8203 70.5047 40 70.5047V46.5047C40 43.191 42.6863 40.5047 46 40.5047H50C53.3137 40.5047 56 43.191 56 46.5047V70.5047H57C64.1797 70.5047 70 64.6844 70 57.5047V39.5047C70 32.325 64.1797 26.5047 57 26.5047H40Z" fill="white"/>
<path d="M12.0578 98.9377L11.2151 98.177L13.8834 95.479C14.0987 95.2612 14.2867 95.0455 14.4472 94.8317C14.6104 94.6151 14.7094 94.4207 14.7439 94.2485C14.7867 94.0623 14.7658 93.8775 14.6813 93.6942C14.5996 93.508 14.4467 93.3138 14.2225 93.1115C13.9924 92.9038 13.6987 92.7404 13.3414 92.6213C12.9841 92.5022 12.6079 92.4222 12.2128 92.3814L8.71382 95.9193L7.87109 95.1586L14.3991 88.5579L15.2418 89.3185L12.8798 91.7068C13.347 91.7378 13.7783 91.822 14.1739 91.9596C14.5695 92.0972 14.9152 92.2995 15.2111 92.5666C15.752 93.0548 16.0119 93.5812 15.991 94.1457C15.97 94.7102 15.6728 95.2823 15.0995 95.8621L12.0578 98.9377Z" fill="white"/>
<path d="M20.4732 100.604L16.2299 97.9462C16.001 98.2821 15.8543 98.6091 15.7898 98.927C15.7274 99.2416 15.7346 99.5367 15.8113 99.8127C15.8834 100.082 16.0148 100.332 16.2055 100.563C16.3996 100.796 16.6445 101.005 16.9401 101.19C17.332 101.436 17.7755 101.609 18.2708 101.71C18.7718 101.809 19.1554 101.84 19.4216 101.802L19.4731 101.834L18.7898 102.837C18.3743 102.763 17.9665 102.664 17.5662 102.539C17.1659 102.414 16.7784 102.234 16.4038 101.999C15.4482 101.401 14.869 100.689 14.6661 99.8637C14.4655 99.0353 14.6729 98.1693 15.2885 97.2658C15.8974 96.372 16.6368 95.823 17.5068 95.6186C18.3801 95.4163 19.2362 95.5778 20.0749 96.1031C20.8517 96.5896 21.3031 97.1795 21.4291 97.8727C21.5585 98.5681 21.3533 99.312 20.8132 100.105L20.4732 100.604ZM20.0097 99.3082C20.3352 98.8233 20.4607 98.3691 20.3864 97.9456C20.3154 97.5243 20.0222 97.1521 19.5066 96.8292C18.9876 96.5041 18.4745 96.3899 17.9674 96.4864C17.4637 96.5851 17.0445 96.8369 16.71 97.2416L20.0097 99.3082Z" fill="white"/>
<path d="M25.0922 106.174L24.048 105.709L24.3517 105.078C24.2297 105.096 24.0623 105.125 23.8495 105.163C23.6421 105.2 23.4486 105.217 23.2691 105.214C23.055 105.218 22.8216 105.195 22.569 105.147C22.3147 105.103 22.0349 105.012 21.7297 104.876C21.1675 104.626 20.7761 104.237 20.5554 103.709C20.3346 103.181 20.3561 102.643 20.6199 102.094C20.8359 101.645 21.1108 101.327 21.4446 101.14C21.7837 100.952 22.1796 100.862 22.6322 100.87C23.0884 100.88 23.5964 100.975 24.1559 101.155C24.7155 101.336 25.3073 101.548 25.9315 101.791L26.0055 101.638C26.1144 101.411 26.1617 101.204 26.1476 101.018C26.1371 100.833 26.0742 100.663 25.9586 100.508C25.8489 100.36 25.6966 100.226 25.5017 100.105C25.3068 99.9837 25.0959 99.8717 24.8688 99.7707C24.5933 99.6487 24.2692 99.5467 23.8964 99.4668C23.5253 99.3832 23.1277 99.3264 22.7037 99.2965L22.6478 99.2716L23.1353 98.2577C23.3656 98.2958 23.6896 98.3692 24.1074 98.478C24.5252 98.5867 24.922 98.7248 25.298 98.8923C25.7373 99.0879 26.1019 99.2933 26.3917 99.5087C26.687 99.7217 26.9138 99.9647 27.072 100.237C27.2283 100.504 27.3058 100.794 27.3044 101.107C27.303 101.421 27.2105 101.768 27.0267 102.15L25.0922 106.174ZM24.7498 104.249L25.5435 102.598C25.2149 102.474 24.8243 102.332 24.3717 102.173C23.9228 102.016 23.5557 101.915 23.2702 101.869C22.9295 101.817 22.6245 101.835 22.355 101.926C22.0872 102.013 21.8809 102.207 21.7363 102.508C21.573 102.847 21.5576 103.152 21.6901 103.422C21.8244 103.688 22.113 103.919 22.556 104.117C22.9245 104.281 23.2938 104.364 23.6637 104.365C24.0353 104.363 24.3973 104.324 24.7498 104.249Z" fill="white"/>
<path d="M28.3099 107.269L27.2192 106.898L30.3446 98.3067L31.4353 98.6771L28.3099 107.269Z" fill="white"/>
<path d="M33.9499 108.822C33.7256 108.819 33.4841 108.801 33.2256 108.768C32.9711 108.736 32.747 108.694 32.5534 108.642C31.8779 108.461 31.4137 108.15 31.1608 107.71C30.9078 107.27 30.8902 106.668 31.1078 105.904L32.0629 102.552L31.3104 102.35L31.5645 101.459L32.317 101.66L32.8331 99.8487L33.9471 100.148L33.4309 101.959L35.73 102.576L35.4759 103.467L33.1769 102.851L32.3584 105.723C32.2641 106.054 32.198 106.316 32.1602 106.508C32.1235 106.697 32.1295 106.885 32.1782 107.072C32.2222 107.245 32.3091 107.388 32.4389 107.5C32.5736 107.609 32.797 107.705 33.1091 107.789C33.2908 107.838 33.4874 107.864 33.6988 107.868C33.9113 107.868 34.0659 107.863 34.1624 107.853L34.2217 107.869L33.9499 108.822Z" fill="white"/>
<path d="M40.9562 110.15L39.8175 109.959L40.4561 106.287C40.5076 105.99 40.5376 105.71 40.5461 105.446C40.5553 105.178 40.5242 104.963 40.4527 104.801C40.3798 104.622 40.2552 104.478 40.0788 104.37C39.9031 104.257 39.6638 104.176 39.361 104.125C39.05 104.073 38.7122 104.092 38.3475 104.181C37.9829 104.271 37.6255 104.403 37.2751 104.578L36.4376 109.394L35.299 109.203L36.8613 100.219L38 100.409L37.4347 103.66C37.8389 103.438 38.2445 103.281 38.6515 103.186C39.0586 103.092 39.4618 103.078 39.8616 103.145C40.5925 103.267 41.1133 103.57 41.424 104.054C41.7346 104.538 41.8213 105.174 41.6841 105.963L40.9562 110.15Z" fill="white"/>
<path d="M51.297 102.582L51.2356 102.581C51.1088 102.544 50.9431 102.507 50.7385 102.47C50.5339 102.429 50.3539 102.407 50.1983 102.406C49.7031 102.4 49.3427 102.502 49.1171 102.71C48.8957 102.915 48.7843 103.291 48.7832 103.838L48.7827 104.061L50.8641 104.084L50.8621 105.01L48.8176 104.987L48.8058 110.609L47.6516 110.596L47.6634 104.975L46.8837 104.966L46.8856 104.04L47.6653 104.049L47.6658 103.832C47.6674 103.054 47.8713 102.46 48.2774 102.05C48.6834 101.637 49.2692 101.434 50.0346 101.442C50.2925 101.445 50.5237 101.459 50.7283 101.485C50.937 101.511 51.1273 101.54 51.2991 101.573L51.297 102.582Z" fill="white"/>
<path d="M57.5201 106.896C57.6225 107.96 57.4181 108.822 56.9068 109.482C56.3954 110.143 55.6609 110.511 54.7031 110.586C53.7371 110.662 52.9391 110.415 52.3092 109.845C51.6834 109.274 51.3192 108.457 51.2168 107.394C51.1143 106.331 51.3167 105.469 51.824 104.809C52.3349 104.144 53.0734 103.774 54.0394 103.698C54.9972 103.622 55.7912 103.872 56.4215 104.446C57.0514 105.016 57.4176 105.833 57.5201 106.896ZM56.334 106.99C56.2526 106.145 56.0189 105.531 55.6331 105.15C55.2468 104.764 54.746 104.596 54.1306 104.644C53.507 104.694 53.0418 104.938 52.7352 105.379C52.4322 105.814 52.3214 106.455 52.4029 107.3C52.4817 108.118 52.7148 108.726 53.1021 109.123C53.4891 109.516 53.9923 109.689 54.6119 109.64C55.2232 109.591 55.6821 109.345 55.9884 108.901C56.2983 108.453 56.4136 107.816 56.334 106.99Z" fill="white"/>
<path d="M62.7068 103.838L62.6466 103.849C62.47 103.841 62.2998 103.844 62.136 103.858C61.9755 103.867 61.7868 103.891 61.57 103.93C61.2207 103.993 60.899 104.129 60.605 104.338C60.3101 104.542 60.0364 104.789 59.784 105.078L60.7326 109.646L59.6005 109.85L58.2642 103.416L59.3964 103.211L59.5938 104.162C59.9716 103.735 60.3164 103.42 60.6282 103.216C60.9431 103.008 61.2792 102.871 61.6365 102.807C61.8333 102.771 61.977 102.751 62.0677 102.747C62.1577 102.739 62.2937 102.732 62.4759 102.727L62.7068 103.838Z" fill="white"/>
<path d="M74.0454 105.798L72.9795 106.196L72.708 105.546C72.6389 105.643 72.5462 105.779 72.4299 105.952C72.316 106.121 72.1967 106.267 72.0721 106.389C71.9285 106.54 71.7522 106.685 71.5432 106.826C71.3358 106.971 71.0763 107.102 70.7647 107.218C70.1909 107.432 69.6284 107.432 69.0773 107.216C68.5262 107.001 68.1328 106.611 67.897 106.047C67.7038 105.584 67.6504 105.173 67.737 104.812C67.8258 104.446 68.0278 104.11 68.3432 103.803C68.6623 103.494 69.0814 103.21 69.6004 102.948C70.1194 102.687 70.6845 102.426 71.2955 102.164L71.2293 102.006C71.1319 101.773 71.0076 101.596 70.8563 101.476C70.7088 101.354 70.537 101.279 70.3409 101.251C70.1539 101.224 69.948 101.236 69.723 101.286C69.498 101.337 69.2697 101.405 69.0379 101.491C68.7567 101.596 68.4584 101.75 68.143 101.952C67.8262 102.15 67.5116 102.385 67.1993 102.658L67.1423 102.679L66.7064 101.635C66.8926 101.503 67.1696 101.33 67.5374 101.117C67.9052 100.904 68.281 100.726 68.6648 100.582C69.1131 100.415 69.5178 100.306 69.8789 100.256C70.2421 100.2 70.5811 100.212 70.8958 100.293C71.2052 100.371 71.4781 100.52 71.7146 100.739C71.951 100.958 72.1514 101.264 72.3157 101.657L74.0454 105.798ZM72.352 104.693L71.6423 102.995C71.3231 103.135 70.9489 103.306 70.5195 103.508C70.0939 103.709 69.7664 103.893 69.5369 104.058C69.2641 104.257 69.07 104.481 68.9545 104.73C68.8376 104.976 68.8437 105.254 68.9731 105.563C69.1191 105.913 69.3396 106.136 69.6345 106.232C69.9279 106.324 70.3007 106.286 70.7529 106.117C71.1291 105.977 71.4441 105.78 71.6979 105.525C71.9501 105.266 72.1682 104.989 72.352 104.693Z" fill="white"/>
<path d="M77.0722 104.335L76.0478 104.834L71.6466 96.6981L72.6711 96.1996L77.0722 104.335Z" fill="white"/>
<path d="M80.076 102.718L79.087 103.278L74.1616 95.4173L75.1506 94.8581L80.076 102.718Z" fill="white"/>
</svg>
