<svg width="25" height="25" viewBox="0 0 25 25" fill="none" xmlns="http://www.w3.org/2000/svg">
<path d="M21.1748 17.5819C21.1748 15.2207 22.6537 13.1124 24.8738 12.3086L24.7463 25.0001C22.7738 25.0001 21.1748 23.4011 21.1748 21.4286V17.5819Z" fill="#004B75"/>
<path d="M6.95312 1.67554H10.5588V10.4322H6.95312V1.67554Z" fill="#004B75"/>
<path fill-rule="evenodd" clip-rule="evenodd" d="M5.92361 1.83965C2.36942 4.02873 0 7.95585 0 12.4364C0 19.3048 5.56796 24.8728 12.4364 24.8728C19.3048 24.8728 24.8728 19.3048 24.8728 12.4364C24.8728 5.56796 19.3048 0 12.4364 0C12.1518 0 11.8695 0.00955762 11.5897 0.0283715V3.73309C11.8683 3.70633 12.1508 3.69262 12.4364 3.69262C17.2655 3.69262 21.1802 7.60736 21.1802 12.4364C21.1802 17.2654 17.2655 21.1802 12.4364 21.1802C7.60736 21.1802 3.69262 17.2654 3.69262 12.4364C3.69262 10.1945 4.53635 8.1497 5.92361 6.60215V1.83965ZM6.9538 5.62465C7.98802 4.79117 9.21598 4.18843 10.5595 3.89457V0.140706C9.28366 0.333839 8.07146 0.720801 6.9538 1.27063V5.62465Z" fill="#004B75"/>
<path fill-rule="evenodd" clip-rule="evenodd" d="M10.3013 6.82666C8.45213 6.82666 6.95312 8.32567 6.95312 10.1748V14.8107C6.95312 16.6598 8.45213 18.1588 10.3013 18.1588V11.9776C10.3013 11.1242 10.9931 10.4323 11.8465 10.4323H12.8767C13.7302 10.4323 14.422 11.1242 14.422 11.9776V18.1588H14.6796C16.5287 18.1588 18.0277 16.6598 18.0277 14.8107V10.1748C18.0277 8.32567 16.5287 6.82666 14.6796 6.82666H10.3013Z" fill="#004B75"/>
</svg>
