<svg width="18" height="22" viewBox="0 0 18 22" fill="none" xmlns="http://www.w3.org/2000/svg">
<path d="M14.9974 20.2827C13.8344 21.3977 12.5645 21.2217 11.3422 20.6935C10.0486 20.1535 8.86179 20.1301 7.49699 20.6935C5.78802 21.4212 4.88607 21.2099 3.86544 20.2827C-1.92605 14.3786 -1.07157 5.38758 5.5032 5.05893C7.10535 5.14109 8.22093 5.92751 9.15848 5.99794C10.5589 5.71623 11.8999 4.90634 13.3953 5.01198C15.1873 5.15283 16.5403 5.85709 17.4303 7.12475C13.7276 9.31969 14.6058 14.1439 18 15.4937C17.3235 17.2543 16.4453 19.0033 14.9856 20.2944L14.9974 20.2827ZM9.0398 4.9885C8.86179 2.371 11.0099 0.211278 13.4784 0C13.8225 3.02831 10.7013 5.28194 9.0398 4.9885Z" fill="black"/>
</svg>
