<svg width="69" height="69" viewBox="0 0 69 69" fill="none" xmlns="http://www.w3.org/2000/svg">
<circle cx="34.5" cy="34.5" r="34.5" fill="#FF9B04"/>
<path d="M35 18C43.2845 18 50 24.7155 50 33C50 41.2845 43.2845 48 35 48H20L24.3935 43.6065C22.9986 42.2152 21.8923 40.5619 21.1383 38.7417C20.3844 36.9215 19.9975 34.9702 20 33C20 24.7155 26.7155 18 35 18ZM41 34.5H29C29 36.0913 29.6321 37.6174 30.7574 38.7426C31.8826 39.8679 33.4087 40.5 35 40.5C36.5913 40.5 38.1174 39.8679 39.2426 38.7426C40.3679 37.6174 41 36.0913 41 34.5Z" fill="white"/>
</svg>
