<svg width="53" height="56" viewBox="0 0 53 56" fill="none" xmlns="http://www.w3.org/2000/svg">
<path fill-rule="evenodd" clip-rule="evenodd" d="M39.3292 24.9167C37.0719 24.9167 34.8786 25.7117 33.0938 27.1767C31.309 28.6417 30.0339 30.6937 29.4689 33.0104L26.6533 32.2396C27.3973 29.1831 29.1022 26.487 31.4865 24.5961C33.8709 22.7053 36.7922 21.7328 39.7682 21.8391C42.7442 21.9455 45.5971 23.1244 47.8559 25.1813C50.1146 27.2381 51.6443 30.0499 52.1924 33.1525C52.7404 36.2552 52.2741 39.4632 50.8704 42.247C49.4667 45.0308 47.2095 47.2241 44.4714 48.4647C41.7333 49.7053 38.678 49.9191 35.8098 49.0709C32.9416 48.2227 30.432 46.363 28.6952 43.799L31.057 41.9999C32.0739 43.5022 33.438 44.7024 35.0183 45.4852C36.5986 46.268 38.3422 46.6073 40.0817 46.4704C41.8213 46.3335 43.4985 45.7251 44.9524 44.7036C46.4064 43.682 47.5883 42.2815 48.3849 40.6365C49.1815 38.9915 49.566 37.157 49.5014 35.3092C49.4369 33.4614 48.9256 31.6621 48.0165 30.084C47.1074 28.5059 45.831 27.2018 44.3098 26.297C42.7885 25.3922 41.0735 24.9169 39.3292 24.9167Z" fill="#AF8EFF"/>
<path fill-rule="evenodd" clip-rule="evenodd" d="M38.7189 34.1667H11.7267C10.9589 34.1667 10.1987 34.327 9.48938 34.6384C8.78006 34.9499 8.13557 35.4064 7.59268 35.9819C7.0498 36.5574 6.61916 37.2406 6.32535 37.9925C6.03154 38.7444 5.88032 39.5503 5.88032 40.3642C5.88032 44.4804 9.59756 47.4527 13.3323 46.3227L39.2861 38.4602C39.7645 38.3148 40.1773 37.9911 40.4485 37.5486C40.7197 37.1062 40.8311 36.5748 40.7621 36.0522C40.693 35.5297 40.4483 35.0512 40.0729 34.7047C39.6974 34.3582 39.2166 34.1672 38.7189 34.1667ZM11.7267 31.0833C9.40472 31.0833 7.17784 32.0611 5.53596 33.8016C3.89408 35.5421 2.97168 37.9027 2.97168 40.3642C2.97168 46.5293 8.53882 50.9801 14.1307 49.2873L40.0845 41.4248C41.2374 41.0751 42.2322 40.2955 42.8859 39.2298C43.5396 38.164 43.808 36.8838 43.6417 35.6249C43.4755 34.366 42.8858 33.2131 41.9812 32.3786C41.0766 31.5441 39.918 31.0841 38.7189 31.0833H11.7267ZM42.8201 46.8083C43.1286 46.563 43.5165 46.4577 43.8983 46.5155C44.2801 46.5733 44.6247 46.7896 44.8561 47.1167L48.7828 52.6667H50.9642C51.35 52.6667 51.7199 52.8291 51.9926 53.1182C52.2653 53.4073 52.4186 53.7995 52.4186 54.2083C52.4186 54.6172 52.2653 55.0093 51.9926 55.2985C51.7199 55.5876 51.35 55.75 50.9642 55.75H43.6926C43.3069 55.75 42.937 55.5876 42.6643 55.2985C42.3915 55.0093 42.2383 54.6172 42.2383 54.2083C42.2383 53.7995 42.3915 53.4073 42.6643 53.1182C42.937 52.8291 43.3069 52.6667 43.6926 52.6667H45.147L42.5292 48.9667C42.2978 48.6396 42.1984 48.2284 42.2529 47.8236C42.3075 47.4189 42.5115 47.0537 42.8201 46.8083Z" fill="#AF8EFF"/>
<path fill-rule="evenodd" clip-rule="evenodd" d="M11.1157 46.8083C11.4242 47.0537 11.6282 47.4189 11.6828 47.8236C11.7373 48.2284 11.6379 48.6396 11.4065 48.9667L7.04356 55.1333C6.81214 55.4604 6.46761 55.6767 6.08578 55.7345C5.70395 55.7923 5.31608 55.687 5.00751 55.4417C4.69895 55.1963 4.49495 54.8311 4.4404 54.4264C4.38586 54.0216 4.48522 53.6104 4.71665 53.2833L9.07961 47.1167C9.31104 46.7896 9.65556 46.5733 10.0374 46.5155C10.4192 46.4577 10.8071 46.563 11.1157 46.8083Z" fill="#AF8EFF"/>
<path d="M1.5166 54.2083C1.5166 53.7995 1.66982 53.4073 1.94256 53.1182C2.2153 52.8291 2.58521 52.6667 2.97092 52.6667H10.2425C10.6282 52.6667 10.9981 52.8291 11.2709 53.1182C11.5436 53.4073 11.6968 53.7995 11.6968 54.2083C11.6968 54.6172 11.5436 55.0093 11.2709 55.2985C10.9981 55.5876 10.6282 55.75 10.2425 55.75H2.97092C2.58521 55.75 2.2153 55.5876 1.94256 55.2985C1.66982 55.0093 1.5166 54.6172 1.5166 54.2083ZM11.6968 40.3333C11.6968 39.9245 11.8501 39.5323 12.1228 39.2432C12.3955 38.9541 12.7655 38.7917 13.1512 38.7917H18.9684C19.3542 38.7917 19.7241 38.9541 19.9968 39.2432C20.2695 39.5323 20.4228 39.9245 20.4228 40.3333C20.4228 40.7422 20.2695 41.1343 19.9968 41.4235C19.7241 41.7126 19.3542 41.875 18.9684 41.875H13.1512C12.7655 41.875 12.3955 41.7126 12.1228 41.4235C11.8501 41.1343 11.6968 40.7422 11.6968 40.3333Z" fill="#AF8EFF"/>
<path d="M14.6063 40.3333C14.6063 41.1511 14.2999 41.9353 13.7544 42.5136C13.2089 43.0918 12.4691 43.4167 11.6977 43.4167C10.9263 43.4167 10.1865 43.0918 9.64098 42.5136C9.09551 41.9353 8.78906 41.1511 8.78906 40.3333C8.78906 39.5156 9.09551 38.7313 9.64098 38.1531C10.1865 37.5749 10.9263 37.25 11.6977 37.25C12.4691 37.25 13.2089 37.5749 13.7544 38.1531C14.2999 38.7313 14.6063 39.5156 14.6063 40.3333Z" fill="#AF8EFF"/>
<path fill-rule="evenodd" clip-rule="evenodd" d="M6.90081 18.8209C7.26878 18.6993 7.66724 18.7375 8.00865 18.9271C8.35006 19.1168 8.6065 19.4423 8.72162 19.8323L12.3574 32.1656C12.4581 32.5512 12.4133 32.9632 12.2327 33.3145C12.052 33.6658 11.7496 33.9289 11.3894 34.0482C11.0291 34.1675 10.6392 34.1336 10.302 33.9538C9.96489 33.7739 9.70689 33.4622 9.58258 33.0844L5.94678 20.7511C5.83205 20.361 5.86809 19.9386 6.04698 19.5767C6.22587 19.2148 6.53297 18.943 6.90081 18.8209ZM42.7367 0.342503C42.9162 0.411991 43.081 0.518285 43.2217 0.655311C43.3624 0.792338 43.4762 0.957411 43.5567 1.1411C43.6372 1.32479 43.6828 1.52349 43.6908 1.72585C43.6988 1.92821 43.6692 2.13026 43.6035 2.32046L42.1492 6.54155C42.0785 6.7467 41.9676 6.93361 41.8237 7.08989C41.6798 7.24617 41.5062 7.36825 41.3144 7.44804L36.0963 9.61409L40.6934 22.8416C40.7642 23.0326 40.7983 23.2366 40.7937 23.4417C40.7891 23.6468 40.746 23.8489 40.6668 24.0361C40.5876 24.2233 40.474 24.3919 40.3325 24.532C40.1911 24.672 40.0247 24.7807 39.8431 24.8517C39.6615 24.9228 39.4684 24.9546 39.275 24.9455C39.0817 24.9363 38.892 24.8864 38.7171 24.7985C38.5421 24.7107 38.3855 24.5867 38.2564 24.4338C38.1273 24.281 38.0282 24.1024 37.9651 23.9084L32.875 9.26259C32.7433 8.8841 32.7568 8.46598 32.9126 8.09792C33.0683 7.72987 33.354 7.44121 33.7083 7.29388L39.6419 4.83029L40.8723 1.26288C41.0047 0.879026 41.2754 0.566613 41.6251 0.394315C41.9747 0.222017 42.3745 0.202394 42.7367 0.342503Z" fill="#AF8EFF"/>
<path fill-rule="evenodd" clip-rule="evenodd" d="M10.88 16.8291L4.33115 16.1353C4.16472 16.1182 3.99673 16.137 3.83735 16.1906C3.67797 16.2443 3.53051 16.3316 3.40391 16.4474C3.2773 16.5632 3.17417 16.705 3.10075 16.8643C3.02734 17.0236 2.98517 17.197 2.9768 17.374C2.96843 17.551 2.99403 17.728 3.05206 17.8943C3.11008 18.0605 3.19932 18.2126 3.31437 18.3412C3.42942 18.4698 3.5679 18.5724 3.72142 18.6427C3.87494 18.7129 4.04031 18.7494 4.20753 18.75H10.7883C11.0196 18.7472 11.2412 18.651 11.4079 18.481C11.5746 18.311 11.6739 18.0801 11.6856 17.8352C11.6973 17.5903 11.6205 17.3499 11.4708 17.163C11.3211 16.976 11.1098 16.8566 10.88 16.8291ZM4.62056 13.0674C4.06183 13.0085 3.49763 13.0705 2.9622 13.2498C2.42678 13.429 1.93128 13.7217 1.50579 14.11C1.0803 14.4984 0.73368 14.9743 0.486969 15.509C0.240259 16.0437 0.0986001 16.6259 0.0705904 17.2204C0.0425806 17.8149 0.128803 18.4092 0.324027 18.9673C0.51925 19.5253 0.819403 20.0355 1.20627 20.4669C1.59314 20.8983 2.05866 21.2419 2.57457 21.4767C3.09049 21.7116 3.64605 21.8329 4.20753 21.8333H10.7883C11.7655 21.8296 12.7041 21.4287 13.4108 20.7133C14.1176 19.998 14.5386 19.0225 14.5873 17.988C14.6359 16.9534 14.3085 15.9384 13.6723 15.1521C13.0362 14.3658 12.1399 13.8679 11.1679 13.7612L4.62056 13.0674Z" fill="#AF8EFF"/>
</svg>
