<svg width="61" height="50" viewBox="0 0 61 50" fill="none" xmlns="http://www.w3.org/2000/svg">
<path d="M13.5432 19.7174C7.3056 21.2007 2.66602 26.8092 2.66602 33.5002C2.66602 41.3244 9.00843 47.6668 16.8327 47.6668C18.1743 47.6668 19.4733 47.4798 20.7044 47.1313M48.0773 19.7174C54.3149 21.2007 58.953 26.8092 58.953 33.5002C58.953 41.3244 52.6106 47.6668 44.7863 47.6668C43.4448 47.6668 42.1457 47.4798 40.916 47.1313M47.9994 19.3335C47.9994 9.94525 40.3876 2.3335 30.9994 2.3335C21.6111 2.3335 13.9993 9.94525 13.9993 19.3335M21.1748 30.4982L30.9994 20.6425L41.103 30.6668M30.9994 44.8335V25.6547" stroke="#78889B" stroke-width="4" stroke-linecap="round" stroke-linejoin="round"/>
</svg>
