<svg width="47" height="52" viewBox="0 0 47 52" fill="none" xmlns="http://www.w3.org/2000/svg">
<path d="M23.1514 28.0417V1L42.818 10.8333L23.1514 20.6667" stroke="#17D1E6" stroke-width="2" stroke-linecap="round" stroke-linejoin="round"/>
<path d="M44.17 21.2321C45.4782 25.2641 45.6006 29.587 44.5227 33.6866C43.4447 37.7862 41.2117 41.4898 38.0895 44.3568C34.9672 47.2239 31.087 49.1337 26.9106 49.8589C22.7342 50.5842 18.4374 50.0945 14.5313 48.448C10.6252 46.8016 7.27425 44.0676 4.8772 40.5715C2.48016 37.0754 1.13788 32.9644 1.01006 28.7274C0.882246 24.4904 1.97427 20.3058 4.15622 16.6716C6.33816 13.0374 9.51817 10.1064 13.3179 8.22749" stroke="#17D1E6" stroke-width="2" stroke-linecap="round" stroke-linejoin="round"/>
<path d="M13.3177 20.6667C12.0859 22.3064 11.2839 24.2284 10.9849 26.2574C10.6858 28.2864 10.8993 30.358 11.6057 32.2834C12.3122 34.2088 13.4892 35.9269 15.0295 37.281C16.5698 38.6351 18.4245 39.5823 20.4246 40.0363C22.4246 40.4902 24.5065 40.4365 26.4805 39.88C28.4545 39.3235 30.2578 38.2819 31.7262 36.8501C33.1947 35.4183 34.2815 33.6418 34.8877 31.6825C35.4939 29.7232 35.6002 27.6434 35.1969 25.6325" stroke="#17D1E6" stroke-width="2" stroke-linecap="round" stroke-linejoin="round"/>
</svg>
