<svg width="602" height="444" viewBox="0 0 602 444" fill="none" xmlns="http://www.w3.org/2000/svg">
<path d="M133.882 122.262L21.6777 197.317L132.193 362.534L244.398 287.479L133.882 122.262Z" fill="#F5F5F5"/>
<path d="M186.419 279.659L185.145 287.54L129.367 279.505L130.64 271.624L186.419 279.659Z" fill="#E0E0E0"/>
<path d="M158.328 251.546L166.332 252.7L157.458 307.617L149.453 306.465L158.328 251.546Z" fill="#E0E0E0"/>
<path d="M106.952 181.745C107.032 181.865 95.787 189.526 81.84 198.855C67.888 208.187 56.516 215.653 56.436 215.533C56.356 215.414 67.598 207.754 81.551 198.422C95.498 189.093 106.872 181.626 106.952 181.745Z" fill="#E0E0E0"/>
<path d="M148.216 171.387C148.296 171.507 129.597 184.154 106.457 199.631C83.3076 215.114 64.4836 227.565 64.4036 227.445C64.3236 227.326 83.0186 214.681 106.167 199.198C129.307 183.721 148.136 171.268 148.216 171.387Z" fill="#E0E0E0"/>
<path d="M156.487 183.753C156.567 183.873 137.868 196.52 114.728 211.997C91.5791 227.48 72.7551 239.931 72.6751 239.811C72.5951 239.691 91.2901 227.047 114.438 211.564C137.579 196.087 156.407 183.634 156.487 183.753Z" fill="#E0E0E0"/>
<path d="M164.758 196.12C164.838 196.24 146.139 208.887 122.999 224.364C99.8496 239.847 81.0256 252.298 80.9456 252.178C80.8656 252.059 99.5606 239.414 122.709 223.931C145.85 208.453 164.678 196 164.758 196.12Z" fill="#E0E0E0"/>
<path d="M173.03 208.485C173.11 208.605 154.411 221.251 131.271 236.729C108.122 252.212 89.298 264.663 89.218 264.543C89.138 264.423 107.833 251.779 130.981 236.296C154.121 220.819 172.95 208.366 173.03 208.485Z" fill="#E0E0E0"/>
<path d="M509.078 232.976L414.846 296.009L507.66 434.763L601.892 371.73L509.078 232.976Z" fill="#F5F5F5"/>
<path d="M553.198 365.18L552.129 371.798L505.284 365.049L506.354 358.431L553.198 365.18Z" fill="#E0E0E0"/>
<path d="M529.607 341.568L536.329 342.537L528.876 388.658L522.154 387.69L529.607 341.568Z" fill="#E0E0E0"/>
<path d="M486.46 282.948C486.54 283.068 477.107 289.517 465.393 297.352C453.675 305.189 444.115 311.444 444.035 311.324C443.955 311.204 453.386 304.756 465.104 296.919C476.817 289.085 486.38 282.829 486.46 282.948Z" fill="#E0E0E0"/>
<path d="M521.114 274.249C521.194 274.369 505.501 285.005 486.067 298.004C466.626 311.007 450.807 321.448 450.727 321.328C450.647 321.208 466.337 310.574 485.778 297.571C505.211 284.573 521.034 274.13 521.114 274.249Z" fill="#E0E0E0"/>
<path d="M528.06 284.635C528.14 284.755 512.447 295.392 493.013 308.39C473.572 321.393 457.753 331.834 457.673 331.714C457.593 331.594 473.283 320.96 492.724 307.957C512.157 294.958 527.98 284.515 528.06 284.635Z" fill="#E0E0E0"/>
<path d="M535.006 295.02C535.086 295.14 519.393 305.776 499.959 318.775C480.518 331.778 464.699 342.219 464.619 342.099C464.539 341.98 480.229 331.345 499.67 318.342C519.103 305.344 534.926 294.901 535.006 295.02Z" fill="#E0E0E0"/>
<path d="M541.954 305.405C542.034 305.525 526.341 316.161 506.907 329.16C487.466 342.163 471.647 352.604 471.567 352.484C471.487 352.365 487.177 341.73 506.618 328.727C526.051 315.729 541.874 305.285 541.954 305.405Z" fill="#E0E0E0"/>
<path d="M359.99 128.328L257.172 73.3398L176.203 224.735L279.021 279.724L359.99 128.328Z" fill="#F5F5F5"/>
<path d="M261.422 232.368L254.899 234.602L238.341 188.828L244.865 186.594L261.422 232.368Z" fill="#E0E0E0"/>
<path d="M271.423 199.528L273.8 206.097L228.34 221.666L225.964 215.097L271.423 199.528Z" fill="#E0E0E0"/>
<path d="M303.724 131.993C303.643 132.144 293.215 126.723 280.434 119.888C267.649 113.05 257.353 107.387 257.434 107.236C257.515 107.086 267.941 112.505 280.726 119.342C293.507 126.178 303.805 131.843 303.724 131.993Z" fill="#E0E0E0"/>
<path d="M328.397 159.227C328.316 159.378 311.057 150.304 289.853 138.964C268.641 127.619 251.516 118.304 251.597 118.153C251.678 118.003 268.933 127.074 290.145 138.419C311.349 149.759 328.478 159.076 328.397 159.227Z" fill="#E0E0E0"/>
<path d="M322.336 170.559C322.255 170.71 304.996 161.636 283.792 150.295C262.58 138.95 245.455 129.635 245.536 129.484C245.617 129.334 262.872 138.405 284.084 149.75C305.288 161.09 322.416 170.408 322.336 170.559Z" fill="#E0E0E0"/>
<path d="M316.276 181.89C316.195 182.041 298.936 172.967 277.732 161.626C256.52 150.282 239.395 140.966 239.476 140.815C239.556 140.664 256.812 149.736 278.024 161.081C299.228 172.422 316.357 181.74 316.276 181.89Z" fill="#E0E0E0"/>
<path d="M310.215 193.222C310.134 193.373 292.876 184.299 271.671 172.958C250.459 161.614 233.334 152.298 233.415 152.147C233.496 151.997 250.751 161.068 271.963 172.413C293.167 183.754 310.295 193.072 310.215 193.222Z" fill="#E0E0E0"/>
<path opacity="0.2" d="M310.755 0H308.172V43.983H310.755V0Z" fill="black"/>
<path d="M249.233 97.1891H369.694C369.694 97.1891 358.572 43.9561 308.551 43.9561C264.058 43.9551 249.233 97.1891 249.233 97.1891Z" fill="#E8505B"/>
<path d="M310.756 0H308.173V43.983H310.756V0Z" fill="#E8505B"/>
<path d="M577.667 439.828C577.667 439.972 448.416 440.088 289.014 440.088C129.557 440.088 0.333984 439.971 0.333984 439.828C0.333984 439.684 129.557 439.568 289.014 439.568C448.416 439.568 577.667 439.685 577.667 439.828Z" fill="#263238"/>
<path d="M32.2866 377.201C35.6676 377.32 38.8416 379.155 41.0716 381.7C43.3016 384.244 44.6686 387.443 45.5436 390.712C47.2356 397.035 46.1956 404.498 44.3926 410.79C37.5466 408.343 33.3256 401.043 31.4166 397.204C28.3986 391.138 26.6296 378.342 32.2866 377.201Z" fill="#E8505B"/>
<path d="M54.2427 418.454C52.0827 415.353 52.0317 411.04 53.7397 407.668C55.4467 404.296 58.7277 401.865 62.3407 400.755C64.0117 400.242 65.9496 400.026 67.4026 400.997C68.7616 401.904 69.3487 403.685 69.1727 405.309C68.9977 406.933 68.1747 408.42 67.2037 409.734C63.8747 414.241 59.8257 417.991 54.2427 418.454Z" fill="#E8505B"/>
<path d="M54.9953 439.584C54.9623 439.589 54.8583 439.12 54.6893 438.27C54.5063 437.332 54.2693 436.121 53.9853 434.666C53.4453 431.636 52.5882 427.327 53.2362 422.563C53.8592 417.82 55.7473 413.766 57.7263 411.345C58.7003 410.12 59.6333 409.253 60.3233 408.72C60.6573 408.439 60.9513 408.267 61.1383 408.135C61.3293 408.009 61.4343 407.95 61.4443 407.963C61.5193 408.048 59.8443 409.08 57.9933 411.549C56.1183 413.978 54.3213 417.963 53.7073 422.626C53.0693 427.293 53.8593 431.563 54.3163 434.609C54.5613 436.139 54.7583 437.379 54.8723 438.24C54.9853 439.101 55.0273 439.58 54.9953 439.584Z" fill="#263238"/>
<path d="M34.4943 386.826C34.5093 386.819 34.6043 386.998 34.7703 387.344C34.9523 387.738 35.1863 388.243 35.4753 388.868C36.0803 390.195 36.9303 392.126 37.9613 394.521C40.0243 399.31 42.7803 405.967 45.6583 413.385C48.5353 420.806 50.9873 427.582 52.6923 432.509C53.5463 434.973 54.2193 436.972 54.6673 438.36C54.8753 439.017 55.0433 439.547 55.1733 439.961C55.2843 440.329 55.3343 440.524 55.3193 440.53C55.3033 440.535 55.2233 440.35 55.0833 439.992C54.9313 439.586 54.7353 439.065 54.4933 438.42C53.9733 436.995 53.2553 435.028 52.3763 432.621C50.5903 427.725 48.0903 420.972 45.2153 413.556C42.3393 406.143 39.6333 399.471 37.6513 394.651C36.6773 392.281 35.8813 390.344 35.3043 388.941C35.0483 388.302 34.8413 387.785 34.6803 387.382C34.5443 387.024 34.4793 386.833 34.4943 386.826Z" fill="#263238"/>
<path d="M46.8694 425.604C42.8324 418.735 35.2944 414.051 27.3474 413.475C25.3234 413.328 22.8894 413.669 21.9874 415.486C21.0834 417.306 22.2924 419.461 23.6714 420.954C29.4074 427.167 39.1114 429.333 46.9454 426.149" fill="#E8505B"/>
<path d="M30.4297 418.892C30.4317 418.859 30.8817 418.878 31.6967 418.939C32.1047 418.967 32.6037 419.003 33.1747 419.11C33.7447 419.216 34.4077 419.278 35.1137 419.475C35.8247 419.649 36.6087 419.823 37.4207 420.116C38.2487 420.361 39.0987 420.715 39.9917 421.093C41.7557 421.894 43.6267 422.942 45.4087 424.305C47.1777 425.684 48.6717 427.225 49.8867 428.736C50.4707 429.511 51.0287 430.245 51.4637 430.991C51.9447 431.708 52.3017 432.429 52.6367 433.079C52.9957 433.718 53.2077 434.35 53.4427 434.881C53.6797 435.412 53.8277 435.89 53.9457 436.282C54.1887 437.063 54.3067 437.497 54.2757 437.506C54.1747 437.541 53.6877 435.793 52.3397 433.233C51.9897 432.6 51.6207 431.9 51.1327 431.203C50.6907 430.477 50.1287 429.764 49.5457 429.009C48.3317 427.538 46.8567 426.035 45.1197 424.681C43.3697 423.343 41.5387 422.302 39.8117 421.492C38.9377 421.109 38.1057 420.746 37.2947 420.489C36.5007 420.185 35.7307 419.995 35.0337 419.801C32.2287 419.091 30.4187 418.995 30.4297 418.892Z" fill="#263238"/>
<path d="M484.361 105.475C481.421 106.152 479.989 109.535 479.71 112.54C479.431 115.544 479.814 118.717 478.553 121.458C477.133 124.543 473.741 126.817 473.628 130.212C473.559 132.281 474.788 134.227 474.729 136.297C474.632 139.696 471.166 142.265 470.984 145.661C470.853 148.106 472.481 150.453 472.09 152.87C471.785 154.751 470.321 156.233 469.702 158.035C468.468 161.628 470.936 165.583 474.151 167.605C477.734 169.859 482.322 170.44 486.353 169.152C490.385 167.864 493.786 164.729 495.398 160.816C497.177 156.497 496.788 151.634 496.402 146.98C495.197 132.474 494.301 117.943 493.716 103.399" fill="#263238"/>
<path d="M475.824 156.665C475.761 156.608 476.628 156.35 477.168 155.067C477.429 154.44 477.563 153.596 477.51 152.626C477.476 151.65 477.143 150.587 476.781 149.388C476.446 148.2 476.009 146.821 476.259 145.288C476.511 143.731 477.625 142.452 478.642 141.196C479.154 140.559 479.668 139.897 479.992 139.144C480.334 138.399 480.406 137.546 480.148 136.746C479.632 135.112 478.031 133.91 477.296 132.024C476.932 131.079 476.928 130.041 477.135 129.106C477.333 128.162 477.715 127.305 478.1 126.489C478.883 124.861 479.745 123.368 480.087 121.783C480.789 118.611 480.461 115.583 480.939 113.096C481.372 110.604 482.425 108.731 483.468 107.768C483.976 107.27 484.468 107.005 484.789 106.826C485.131 106.679 485.311 106.611 485.318 106.628C485.352 106.684 484.577 106.922 483.611 107.911C482.647 108.886 481.68 110.718 481.302 113.157C481.103 114.37 481.074 115.734 481.024 117.198C480.972 118.661 480.926 120.25 480.554 121.892C480.207 123.556 479.321 125.108 478.561 126.707C477.809 128.278 477.118 130.12 477.783 131.842C478.418 133.544 480.029 134.753 480.634 136.592C480.93 137.507 480.833 138.521 480.447 139.341C480.08 140.175 479.535 140.857 479.013 141.497C477.968 142.761 476.922 143.963 476.683 145.363C476.433 146.755 476.819 148.098 477.134 149.287C477.469 150.476 477.792 151.596 477.8 152.613C477.827 153.621 477.657 154.499 477.353 155.148C477.051 155.801 476.638 156.205 476.328 156.41C476.021 156.621 475.824 156.665 475.824 156.665Z" fill="#455A64"/>
<path d="M467.951 180.366L458.924 206.388L421.281 208.406L415.004 222.374L454.304 226.35C462.141 229.59 471.095 225.619 473.955 217.636L484.443 188.361L467.951 180.366Z" fill="#B78876"/>
<path d="M545.814 425.697C545.814 425.697 518.228 338.08 517.643 335.235C517.114 332.664 527.654 269.611 528.982 253.293L491.708 254.683C491.708 254.683 491.707 254.783 491.705 254.955L475.861 255.834L490.052 435.027H507.205L505.504 375.576C516.081 403.973 531.238 432.911 531.238 432.911L545.814 425.697Z" fill="#B78876"/>
<path d="M506.203 396.883C506.218 396.339 505.995 376.964 505.995 376.964C505.781 378.123 499.419 360.141 499.573 359.048C499.652 358.482 506.203 396.883 506.203 396.883Z" fill="#A36957"/>
<path d="M498.847 350.535C498.808 350.534 498.771 350.92 498.737 351.621C498.7 352.321 498.692 353.337 498.76 354.592C498.784 355.22 498.85 355.906 498.931 356.641C499.025 357.374 499.125 358.16 499.295 358.975C499.606 360.61 500.086 362.38 500.697 364.195C501.943 367.819 503.317 370.99 504.293 373.291C504.756 374.34 505.153 375.242 505.487 376C505.78 376.635 505.959 376.98 505.996 376.965C506.033 376.95 505.923 376.578 505.693 375.917C505.463 375.256 505.113 374.307 504.667 373.14C503.787 370.801 502.472 367.606 501.238 364.014C500.633 362.216 500.145 360.477 499.811 358.872C499.63 358.072 499.514 357.301 499.401 356.58C499.301 355.857 499.213 355.183 499.164 354.563C499.046 353.326 498.992 352.318 498.961 351.621C498.924 350.922 498.886 350.535 498.847 350.535Z" fill="#A36957"/>
<path d="M489.729 435.91L489.722 434.299L507.292 433.533L507.34 440.178L506.256 440.251C501.433 440.533 481.714 441.347 478.487 440.379C474.886 439.3 489.729 435.91 489.729 435.91Z" fill="#455A64"/>
<path d="M507.584 439.777C507.584 439.784 507.481 439.796 507.284 439.811C507.025 439.828 506.741 439.846 506.421 439.866C505.558 439.906 504.497 439.956 503.244 440.014C500.561 440.12 496.852 440.218 492.755 440.236C488.656 440.253 484.946 440.188 482.263 440.106C481.01 440.059 479.949 440.018 479.085 439.985C478.765 439.967 478.481 439.952 478.222 439.937C478.025 439.924 477.921 439.913 477.922 439.906C477.922 439.899 478.026 439.895 478.224 439.894C478.484 439.896 478.768 439.899 479.089 439.902C479.953 439.916 481.014 439.934 482.267 439.955C484.951 439.999 488.659 440.041 492.755 440.023C496.85 440.005 500.557 439.931 503.24 439.863C504.493 439.831 505.555 439.804 506.418 439.782C506.739 439.776 507.023 439.771 507.283 439.767C507.48 439.767 507.584 439.77 507.584 439.777Z" fill="#263238"/>
<path d="M484.036 440.342C483.971 440.35 483.919 439.592 483.437 438.828C482.968 438.055 482.313 437.67 482.35 437.616C482.362 437.563 483.113 437.89 483.618 438.717C484.132 439.538 484.089 440.355 484.036 440.342Z" fill="#263238"/>
<path d="M489.185 437.707C489.136 437.738 488.888 437.439 488.632 437.038C488.375 436.637 488.208 436.287 488.257 436.255C488.306 436.223 488.554 436.523 488.811 436.924C489.066 437.325 489.234 437.676 489.185 437.707Z" fill="#263238"/>
<path d="M490.596 436.953C490.557 436.997 490.281 436.814 489.978 436.544C489.676 436.274 489.463 436.021 489.501 435.977C489.54 435.933 489.816 436.116 490.119 436.386C490.422 436.656 490.635 436.91 490.596 436.953Z" fill="#263238"/>
<path d="M491.486 435.3C491.487 435.359 491.079 435.412 490.574 435.42C490.07 435.427 489.66 435.386 489.659 435.328C489.658 435.269 490.066 435.216 490.571 435.208C491.076 435.201 491.485 435.242 491.486 435.3Z" fill="#263238"/>
<path d="M491.789 434.136C491.809 434.188 491.365 434.39 490.772 434.436C490.18 434.485 489.709 434.354 489.721 434.3C489.731 434.24 490.193 434.272 490.756 434.225C491.318 434.182 491.77 434.078 491.789 434.136Z" fill="#263238"/>
<path d="M488.586 436.184C488.588 436.208 488.157 436.262 487.463 436.181C487.117 436.141 486.707 436.06 486.266 435.922C486.047 435.845 485.818 435.787 485.581 435.642C485.47 435.568 485.346 435.464 485.302 435.294C485.255 435.126 485.344 434.936 485.471 434.844C486.543 434.284 487.62 434.884 488.021 435.437C488.241 435.719 488.343 435.995 488.39 436.185C488.436 436.377 488.433 436.487 488.42 436.488C488.38 436.503 488.342 436.046 487.905 435.532C487.689 435.28 487.363 435.035 486.943 434.912C486.546 434.796 485.981 434.766 485.604 435.008C485.426 435.141 485.496 435.35 485.695 435.468C485.88 435.587 486.12 435.658 486.327 435.735C486.753 435.88 487.149 435.973 487.485 436.032C488.158 436.15 488.586 436.15 488.586 436.184Z" fill="#263238"/>
<path d="M488.295 436.241C488.279 436.253 488.112 435.967 488.163 435.462C488.189 435.214 488.279 434.919 488.467 434.64C488.664 434.39 488.918 434.045 489.4 434.064C489.661 434.097 489.789 434.392 489.748 434.581C489.728 434.778 489.641 434.947 489.559 435.084C489.393 435.365 489.205 435.593 489.031 435.766C488.68 436.111 488.402 436.244 488.39 436.223C488.37 436.196 488.613 436.021 488.921 435.664C489.074 435.486 489.241 435.26 489.389 434.988C489.542 434.75 489.646 434.323 489.364 434.273C489.083 434.247 488.797 434.528 488.626 434.753C488.45 434.997 488.353 435.259 488.311 435.485C488.227 435.941 488.333 436.233 488.295 436.241Z" fill="#263238"/>
<path d="M507.21 434.995C507.206 435.034 506.709 434.949 505.92 435.045C505.138 435.135 504.05 435.46 503.106 436.217C502.163 436.976 501.611 437.967 501.354 438.712C501.09 439.462 501.066 439.966 501.026 439.961C501.013 439.96 501.006 439.835 501.024 439.608C501.041 439.382 501.094 439.055 501.211 438.665C501.437 437.888 501.989 436.843 502.973 436.052C503.957 435.263 505.097 434.95 505.904 434.897C506.311 434.867 506.641 434.886 506.865 434.918C507.091 434.948 507.212 434.982 507.21 434.995Z" fill="#263238"/>
<path d="M498.796 438.384C498.803 438.439 497.663 438.621 496.243 438.627C494.822 438.637 493.681 438.467 493.687 438.412C493.693 438.351 494.834 438.425 496.242 438.415C497.649 438.409 498.789 438.323 498.796 438.384Z" fill="#263238"/>
<path d="M502.221 438.348C502.264 438.391 502.128 438.59 502.013 438.853C501.894 439.114 501.835 439.348 501.774 439.344C501.717 439.344 501.683 439.068 501.819 438.766C501.954 438.463 502.183 438.306 502.221 438.348Z" fill="#263238"/>
<path d="M503.506 436.735C503.548 436.776 503.436 436.958 503.256 437.142C503.076 437.326 502.896 437.442 502.854 437.401C502.812 437.36 502.924 437.178 503.105 436.994C503.284 436.81 503.464 436.694 503.506 436.735Z" fill="#263238"/>
<path d="M505.351 435.994C505.339 436.053 505.107 436.052 504.85 436.144C504.591 436.229 504.409 436.373 504.363 436.333C504.316 436.301 504.462 436.052 504.781 435.944C505.1 435.833 505.368 435.94 505.351 435.994Z" fill="#263238"/>
<path d="M506.664 435.643C506.685 435.698 506.585 435.788 506.44 435.844C506.295 435.901 506.161 435.903 506.14 435.848C506.119 435.794 506.219 435.703 506.364 435.647C506.509 435.591 506.642 435.589 506.664 435.643Z" fill="#263238"/>
<path d="M530.893 434.36L530.226 432.893L545.941 424.998L548.707 431.04L547.748 431.55C543.464 433.783 525.808 442.602 522.468 443.042C518.742 443.532 530.893 434.36 530.893 434.36Z" fill="#455A64"/>
<path d="M548.766 430.573C548.769 430.58 548.68 430.632 548.506 430.727C548.277 430.848 548.025 430.981 547.741 431.131C546.97 431.521 546.022 432.001 544.904 432.568C542.5 433.764 539.156 435.372 535.426 437.067C531.694 438.762 528.283 440.222 525.801 441.246C524.639 441.716 523.654 442.114 522.853 442.438C522.554 442.553 522.288 442.655 522.046 442.748C521.861 442.817 521.762 442.85 521.759 442.843C521.756 442.836 521.849 442.79 522.03 442.709C522.268 442.605 522.528 442.491 522.822 442.362C523.616 442.021 524.592 441.603 525.743 441.109C528.21 440.05 531.609 438.569 535.339 436.875C539.067 435.181 542.419 433.595 544.839 432.434C545.969 431.892 546.926 431.432 547.705 431.058C547.995 430.921 548.252 430.8 548.487 430.69C548.666 430.607 548.762 430.566 548.766 430.573Z" fill="#263238"/>
<path d="M527.515 440.735C527.46 440.769 527.102 440.099 526.349 439.599C525.605 439.086 524.848 439.003 524.859 438.938C524.849 438.885 525.668 438.875 526.468 439.423C527.273 439.962 527.568 440.725 527.515 440.735Z" fill="#263238"/>
<path d="M531.133 436.222C531.101 436.271 530.752 436.099 530.354 435.839C529.956 435.578 529.659 435.327 529.691 435.279C529.723 435.23 530.072 435.402 530.47 435.662C530.868 435.922 531.165 436.173 531.133 436.222Z" fill="#263238"/>
<path d="M532.113 434.956C532.095 435.012 531.768 434.958 531.382 434.836C530.996 434.714 530.697 434.57 530.715 434.514C530.733 434.458 531.06 434.512 531.446 434.634C531.832 434.756 532.13 434.9 532.113 434.956Z" fill="#263238"/>
<path d="M532.247 433.084C532.272 433.137 531.921 433.353 531.465 433.567C531.008 433.78 530.617 433.91 530.593 433.857C530.568 433.804 530.919 433.588 531.376 433.375C531.831 433.161 532.222 433.031 532.247 433.084Z" fill="#263238"/>
<path d="M532.046 431.897C532.085 431.936 531.763 432.303 531.241 432.587C530.72 432.874 530.238 432.948 530.226 432.893C530.21 432.834 530.645 432.674 531.139 432.401C531.636 432.132 532.005 431.852 532.046 431.897Z" fill="#263238"/>
<path d="M529.963 435.078C529.974 435.099 529.603 435.325 528.937 435.535C528.605 435.64 528.198 435.734 527.739 435.789C527.507 435.808 527.275 435.85 526.999 435.815C526.867 435.793 526.712 435.749 526.602 435.612C526.49 435.478 526.494 435.269 526.572 435.133C527.32 434.183 528.549 434.289 529.141 434.63C529.458 434.797 529.663 435.007 529.784 435.161C529.904 435.317 529.946 435.419 529.936 435.425C529.906 435.455 529.684 435.054 529.074 434.764C528.774 434.622 528.376 434.532 527.943 434.592C527.533 434.649 527.006 434.853 526.761 435.228C526.653 435.422 526.803 435.584 527.032 435.61C527.25 435.642 527.497 435.61 527.718 435.595C528.166 435.553 528.565 435.476 528.896 435.391C529.558 435.222 529.949 435.046 529.963 435.078Z" fill="#263238"/>
<path d="M529.721 435.249C529.712 435.267 529.442 435.074 529.281 434.592C529.203 434.355 529.165 434.049 529.221 433.718C529.299 433.409 529.389 432.991 529.836 432.81C530.087 432.733 530.673 433.237 530.713 433.427C530.776 433.615 530.417 433.518 530.398 433.676C530.362 434.001 530.284 434.285 530.196 434.514C530.017 434.973 529.818 435.208 529.798 435.194C529.769 435.177 529.919 434.918 530.054 434.466C530.121 434.24 530.18 433.966 530.204 433.658C530.246 433.378 530.166 432.946 529.889 433.016C529.622 433.107 529.476 433.481 529.412 433.756C529.352 434.05 529.37 434.329 529.424 434.553C529.536 435.004 529.752 435.226 529.721 435.249Z" fill="#263238"/>
<path d="M546.466 426.364C546.479 426.402 545.99 426.527 545.309 426.938C544.632 427.34 543.773 428.082 543.222 429.159C542.672 430.237 542.575 431.368 542.646 432.152C542.712 432.945 542.897 433.414 542.859 433.426C542.847 433.431 542.789 433.319 542.713 433.105C542.636 432.892 542.551 432.572 542.497 432.168C542.385 431.367 542.46 430.187 543.034 429.063C543.609 427.94 544.52 427.188 545.235 426.808C545.594 426.614 545.903 426.496 546.121 426.433C546.338 426.371 546.462 426.352 546.466 426.364Z" fill="#263238"/>
<path d="M540.178 432.903C540.207 432.95 539.242 433.583 537.949 434.17C536.657 434.761 535.546 435.073 535.529 435.021C535.509 434.963 536.581 434.563 537.861 433.978C539.142 433.396 540.147 432.849 540.178 432.903Z" fill="#263238"/>
<path d="M543.287 431.466C543.343 431.487 543.302 431.725 543.304 432.012C543.302 432.299 543.344 432.536 543.287 432.558C543.235 432.581 543.091 432.344 543.092 432.012C543.091 431.68 543.235 431.443 543.287 431.466Z" fill="#263238"/>
<path d="M543.798 429.469C543.853 429.489 543.825 429.701 543.736 429.943C543.647 430.185 543.53 430.364 543.476 430.344C543.421 430.324 543.449 430.112 543.538 429.87C543.627 429.629 543.744 429.449 543.798 429.469Z" fill="#263238"/>
<path d="M545.179 428.038C545.192 428.097 544.98 428.191 544.783 428.379C544.582 428.563 544.474 428.768 544.416 428.751C544.36 428.741 544.391 428.454 544.638 428.224C544.884 427.993 545.173 427.981 545.179 428.038Z" fill="#263238"/>
<path d="M546.234 427.179C546.276 427.22 546.221 427.343 546.113 427.454C546.004 427.565 545.882 427.622 545.84 427.581C545.798 427.54 545.853 427.417 545.961 427.306C546.07 427.195 546.192 427.138 546.234 427.179Z" fill="#263238"/>
<path d="M526.564 223.635L523.638 187.938L538.666 188.206C538.666 188.206 539.362 182.943 537.148 171.397C535.79 164.317 531.075 159.975 525.787 157.395L525.788 157.3L525.329 157.18C518.604 154.032 511.564 153.588 511.564 153.588L493.117 153.801C493.117 153.801 479.025 152.043 471.225 162.089C468.22 165.959 458.923 192.444 458.923 192.444L481.065 203.107L478.957 188.42C478.957 188.42 479.376 199.069 480.735 202.443C481.492 204.323 483.684 210.159 483.684 210.159L483.398 227.774L526.564 223.635Z" fill="#E8505B"/>
<path d="M516.386 182.756L513.648 194.422H539.479L537.78 174.864L516.386 182.756Z" fill="#E8505B"/>
<path d="M539.48 194.422C539.484 194.345 538.178 194.208 536.061 194.084C533.944 193.96 531.015 193.855 527.777 193.87C524.539 193.886 521.609 194.026 519.494 194.194C517.379 194.361 516.078 194.54 516.084 194.615C516.09 194.697 517.401 194.66 519.516 194.596C521.631 194.531 524.552 194.455 527.781 194.439C531.008 194.425 533.931 194.465 536.048 194.486C538.164 194.508 539.476 194.502 539.48 194.422Z" fill="#263238"/>
<path d="M515.273 174.768C515.194 174.771 515.167 175.905 515.187 177.735C515.207 179.566 515.273 182.092 515.381 184.882C515.489 187.672 515.619 190.197 515.742 192.024C515.864 193.85 515.98 194.978 516.058 194.975C516.137 194.972 516.164 193.838 516.144 192.008C516.125 190.178 516.058 187.65 515.95 184.86C515.842 182.07 515.712 179.546 515.589 177.719C515.467 175.894 515.352 174.765 515.273 174.768Z" fill="#263238"/>
<g opacity="0.3">
<path d="M491.768 184.872C491.768 184.872 497.51 227.44 513.649 226.313C513.649 226.313 520.915 226.227 523.252 221.397V219.496L491.768 184.872Z" fill="black"/>
</g>
<g opacity="0.3">
<path d="M515.273 177.277L512.184 198.145L514.184 201.807L517.477 194.647L516.083 194.614L515.273 177.277Z" fill="black"/>
</g>
<path d="M483.686 210.16C483.652 210.172 483.498 209.816 483.25 209.163C482.999 208.511 482.666 207.557 482.28 206.369C481.509 203.994 480.556 200.668 479.81 196.924C479.068 193.177 478.704 189.731 478.586 187.233C478.526 185.984 478.507 184.972 478.526 184.273C478.54 183.574 478.564 183.188 478.6 183.188C478.683 183.187 478.739 184.729 478.953 187.208C479.165 189.687 479.583 193.1 480.321 196.823C481.062 200.544 481.954 203.867 482.633 206.263C482.95 207.374 483.221 208.321 483.443 209.101C483.631 209.771 483.72 210.148 483.686 210.16Z" fill="#263238"/>
<path d="M490.212 222.393C490.074 222.435 489.675 221.516 489.32 220.342C488.965 219.167 488.788 218.182 488.926 218.14C489.064 218.098 489.463 219.017 489.818 220.191C490.173 221.365 490.35 222.351 490.212 222.393Z" fill="#263238"/>
<path d="M492.443 222.23C492.31 222.264 491.874 220.886 491.853 219.118C491.823 217.35 492.218 215.96 492.351 215.99C492.499 216.017 492.343 217.404 492.373 219.11C492.393 220.816 492.591 222.199 492.443 222.23Z" fill="#263238"/>
<path d="M481.516 203.596C481.452 203.725 476.299 201.28 470.008 198.136C463.715 194.991 458.667 192.339 458.732 192.21C458.796 192.081 463.948 194.526 470.241 197.67C476.531 200.814 481.58 203.467 481.516 203.596Z" fill="#263238"/>
<path d="M490.596 157.253C490.711 152.194 490.74 146.866 490.74 146.866C490.74 146.866 484.251 145.616 483.12 137.078C482.042 128.936 485.058 109.831 485.058 109.831C494.536 106.248 504.386 109.496 510.88 117.176L509.268 158.25C509.081 163.018 504.833 166.655 499.729 166.416C494.573 166.174 490.486 162.073 490.596 157.253Z" fill="#B78876"/>
<path d="M484.565 125.1C484.53 125.675 484.988 126.179 485.588 126.227C486.187 126.275 486.702 125.848 486.737 125.273C486.772 124.698 486.314 124.193 485.715 124.145C485.115 124.097 484.6 124.525 484.565 125.1Z" fill="#263238"/>
<path d="M484.16 123.667C484.292 123.813 485.134 123.223 486.307 123.256C487.48 123.272 488.325 123.898 488.456 123.758C488.52 123.696 488.389 123.436 488.021 123.153C487.659 122.872 487.036 122.591 486.305 122.575C485.574 122.56 484.952 122.813 484.592 123.08C484.224 123.348 484.095 123.602 484.16 123.667Z" fill="#263238"/>
<path d="M496.472 125.841C496.437 126.416 496.895 126.921 497.495 126.969C498.094 127.017 498.609 126.59 498.644 126.015C498.679 125.44 498.221 124.935 497.622 124.887C497.022 124.838 496.507 125.266 496.472 125.841Z" fill="#263238"/>
<path d="M496.392 124.409C496.524 124.555 497.367 123.965 498.539 123.998C499.711 124.015 500.557 124.641 500.688 124.5C500.752 124.438 500.622 124.178 500.253 123.895C499.891 123.614 499.268 123.333 498.537 123.317C497.806 123.302 497.184 123.555 496.824 123.822C496.457 124.09 496.328 124.344 496.392 124.409Z" fill="#263238"/>
<path d="M491.908 133.001C491.915 132.934 491.189 132.79 490.011 132.608C489.712 132.569 489.43 132.503 489.385 132.297C489.32 132.079 489.454 131.759 489.608 131.414C489.908 130.696 490.223 129.944 490.553 129.155C491.867 125.938 492.827 123.29 492.697 123.238C492.567 123.186 491.396 125.751 490.082 128.968C489.765 129.761 489.462 130.518 489.174 131.241C489.052 131.579 488.847 131.96 488.988 132.413C489.063 132.639 489.279 132.807 489.469 132.864C489.66 132.928 489.828 132.935 489.976 132.948C491.164 133.044 491.902 133.068 491.908 133.001Z" fill="#263238"/>
<path d="M490.739 146.866C490.739 146.866 496.45 147.382 502.204 144.122C502.204 144.122 499.291 149.892 490.801 148.876L490.739 146.866Z" fill="#A36957"/>
<path d="M500.148 121.024C499.907 121.391 499.015 121.228 498.015 121.048C497.019 120.847 496.129 120.67 496.04 120.24C495.941 119.828 496.974 119.257 498.308 119.513C499.642 119.767 500.392 120.677 500.148 121.024Z" fill="#263238"/>
<path d="M488.481 119.302C488.39 119.73 487.435 119.886 486.333 119.942C485.23 119.987 484.264 119.919 484.135 119.502C484.003 119.098 484.935 118.44 486.261 118.382C487.586 118.318 488.575 118.887 488.481 119.302Z" fill="#263238"/>
<path d="M491.927 135.81C491.68 135.741 491.402 135.882 491.278 136.107C491.13 136.374 491.198 136.742 491.432 136.939C491.665 137.136 492.039 137.141 492.278 136.95C492.517 136.76 492.595 136.394 492.455 136.123C492.315 135.852 491.972 135.704 491.678 135.788" fill="#A36957"/>
<path d="M492.203 135.926C492.256 135.879 492.015 135.591 491.503 135.703C491.266 135.755 490.956 135.968 490.862 136.332C490.768 136.674 490.853 137.117 491.215 137.395C491.59 137.659 492.042 137.605 492.34 137.402C492.66 137.192 492.75 136.808 492.7 136.568C492.597 136.041 492.207 135.957 492.196 136.03C492.152 136.096 492.332 136.279 492.297 136.591C492.28 136.744 492.207 136.886 492.059 136.958C491.914 137.037 491.683 137.037 491.552 136.936C491.415 136.838 491.344 136.62 491.372 136.452C491.393 136.284 491.505 136.159 491.641 136.082C491.919 135.924 492.166 135.998 492.203 135.926Z" fill="#263238"/>
<path d="M506.95 127.208C505.938 129.552 503.47 131.358 503.812 133.888C504.033 135.521 505.081 137.044 504.877 138.68C504.621 140.734 502.487 142.158 502.185 144.206C501.815 146.718 504.258 148.67 505.234 151.014C506.655 154.427 504.837 158.266 504.794 161.963C504.729 167.626 509.544 172.916 515.188 173.381C517.471 173.569 520.043 172.88 521.226 170.919C522.203 169.301 522.007 167.245 522.593 165.448C523.465 162.772 526.016 160.813 526.554 158.05C527.534 153.013 521.447 148.845 521.847 143.729C522.018 141.543 523.368 139.636 523.941 137.52C524.693 134.748 524.004 131.626 522.155 129.428C520.653 127.641 518.473 126.466 517.194 124.514C515.743 122.3 515.693 119.493 515.146 116.903C513.813 110.592 509.073 105.11 503.021 102.878C496.969 100.646 489.805 101.738 484.693 105.671C484.693 105.671 483.238 112.262 490.004 113.364C496.769 114.466 499.905 113.194 500.668 115.906C500.668 115.906 499.897 119.073 502.694 122.099C505.492 125.127 508.121 124.494 506.95 127.208Z" fill="#263238"/>
<path d="M517.746 172.92C517.743 172.938 517.532 172.915 517.129 172.856C516.727 172.793 516.137 172.66 515.408 172.392C513.964 171.864 511.917 170.714 510.173 168.517C509.307 167.428 508.496 166.108 507.948 164.556C507.388 163.013 507.068 161.264 507.039 159.422C506.996 157.579 507.257 155.646 507.76 153.712C508.011 152.744 508.338 151.778 508.717 150.819C509.091 149.856 509.551 148.928 509.815 147.946C510.1 146.967 510.061 145.967 509.805 145.013C509.544 144.059 509.1 143.162 508.668 142.275C508.233 141.389 507.789 140.505 507.503 139.565C507.212 138.633 507.103 137.628 507.293 136.691C507.692 134.807 508.836 133.413 509.511 131.982C510.225 130.565 510.449 129.067 510.416 127.723C510.295 124.999 509.134 122.985 508.186 121.824C507.198 120.662 506.449 120.219 506.487 120.17C506.487 120.17 507.28 120.545 508.34 121.692C509.356 122.838 510.609 124.88 510.784 127.707C510.844 129.1 510.63 130.678 509.9 132.171C509.21 133.654 508.106 135.058 507.765 136.782C507.414 138.519 508.236 140.308 509.127 142.049C509.563 142.937 510.025 143.855 510.307 144.876C510.587 145.89 510.628 147.036 510.32 148.08C510.036 149.129 509.566 150.069 509.201 151.009C508.827 151.949 508.505 152.894 508.256 153.841C507.757 155.733 507.493 157.618 507.522 159.413C507.534 163.018 508.771 166.169 510.466 168.287C512.127 170.455 514.09 171.625 515.486 172.202C516.897 172.775 517.758 172.861 517.746 172.92Z" fill="#455A64"/>
<path d="M516.75 122.459C516.753 122.492 516.226 122.587 515.26 122.681C514.298 122.76 512.877 122.872 511.141 122.573C509.446 122.263 507.302 121.431 505.944 119.42C505.277 118.411 505.013 117.19 504.579 116.063C504.171 114.923 503.382 113.936 502.301 113.252C500.113 111.865 497.539 111.695 495.288 111.421C493.025 111.166 490.9 110.686 489.459 109.606C488.008 108.573 487.264 107.233 487.073 106.267C486.964 105.783 486.973 105.395 486.995 105.139C487.031 104.882 487.059 104.751 487.077 104.754C487.141 104.755 487.008 105.304 487.27 106.217C487.512 107.121 488.263 108.357 489.67 109.304C491.057 110.287 493.09 110.716 495.344 110.945C497.576 111.197 500.241 111.336 502.584 112.815C503.741 113.537 504.636 114.669 505.055 115.88C505.5 117.07 505.749 118.241 506.347 119.161C507.565 121.022 509.583 121.873 511.211 122.213C512.881 122.55 514.288 122.498 515.247 122.481C516.211 122.447 516.746 122.421 516.75 122.459Z" fill="#455A64"/>
<path d="M514.268 114.315C514.273 114.34 513.864 114.468 513.096 114.487C512.334 114.508 511.194 114.373 509.939 113.776C509.314 113.479 508.672 113.053 508.081 112.484C507.481 111.918 506.99 111.186 506.53 110.414C505.628 108.893 504.76 107.017 502.89 106.242C501.058 105.456 499.04 105.631 497.287 105.75C495.517 105.924 493.858 105.976 492.505 105.71C491.143 105.473 490.121 104.909 489.554 104.387C489.268 104.129 489.073 103.898 488.966 103.727C488.854 103.559 488.803 103.467 488.818 103.456C488.859 103.424 489.098 103.777 489.683 104.23C490.265 104.681 491.249 105.164 492.566 105.347C493.883 105.557 495.468 105.474 497.246 105.272C499.008 105.133 501.086 104.911 503.1 105.766C504.097 106.189 504.91 106.938 505.488 107.749C506.077 108.56 506.499 109.407 506.944 110.172C507.385 110.938 507.838 111.637 508.385 112.177C508.926 112.724 509.52 113.144 510.104 113.447C511.276 114.056 512.362 114.244 513.1 114.284C513.845 114.328 514.262 114.27 514.268 114.315Z" fill="#455A64"/>
<path d="M520.731 170.762C520.68 170.739 520.998 170.095 521.367 168.864C521.733 167.637 522.097 165.793 522.034 163.504C521.956 161.231 521.409 158.481 519.901 155.868C519.17 154.558 518.058 153.392 517.153 151.953C516.703 151.235 516.316 150.43 516.146 149.539C515.979 148.647 516.081 147.7 516.367 146.84C516.928 145.114 517.932 143.66 518.148 142.073C518.416 140.481 517.612 139.029 516.851 137.737C516.466 137.079 516.08 136.429 515.78 135.749C515.481 135.069 515.29 134.353 515.215 133.661C515.063 132.271 515.225 130.994 515.328 129.848C515.617 127.564 515.405 125.687 514.854 124.534C514.321 123.367 513.622 123.017 513.673 122.969C513.678 122.962 513.719 122.981 513.794 123.027C513.868 123.075 513.985 123.138 514.113 123.255C514.38 123.472 514.736 123.857 515.036 124.446C515.669 125.613 515.94 127.576 515.694 129.88C515.613 131.031 515.478 132.292 515.642 133.609C515.775 134.938 516.46 136.192 517.263 137.493C517.652 138.151 518.063 138.838 518.351 139.618C518.647 140.391 518.782 141.275 518.652 142.143C518.409 143.892 517.378 145.372 516.862 146.998C516.593 147.81 516.507 148.644 516.654 149.446C516.805 150.248 517.157 150.995 517.585 151.685C518.443 153.067 519.56 154.257 520.315 155.629C521.85 158.344 522.367 161.173 522.4 163.496C522.418 165.835 521.989 167.702 521.559 168.926C521.334 169.537 521.146 170.005 520.983 170.307C520.834 170.613 520.747 170.77 520.731 170.762Z" fill="#455A64"/>
<path d="M479.995 357.088C479.995 357.088 473.26 293.246 472.873 269.655C472.486 246.065 483.479 222.789 483.479 222.789L526.562 220.967C526.562 220.967 535.078 244.903 535.23 254.957C535.526 274.496 530.039 293.79 530.671 309.29L532.111 357.088" fill="#263238"/>
<path d="M533.554 278.603C533.563 278.619 533.319 278.803 532.851 279.136C532.731 279.221 532.6 279.313 532.458 279.413C532.323 279.527 532.192 279.671 532.041 279.816C531.739 280.106 531.386 280.436 531.081 280.891C529.689 282.595 528.675 285.639 527.71 289.436C527.179 291.322 526.64 293.438 525.529 295.51C525.231 296.015 524.964 296.551 524.572 297.022C524.385 297.262 524.215 297.519 524.009 297.75L523.346 298.413C522.447 299.298 521.307 299.965 520.106 300.492C517.694 301.549 514.972 302.051 512.485 303.298C509.982 304.517 508.105 306.88 506.955 309.601C505.742 312.31 505.006 315.155 503.994 317.811C503 320.446 501.646 323.012 499.497 324.632C497.365 326.311 494.729 326.695 492.447 326.842C490.127 326.977 487.979 326.91 486.053 327.202C484.134 327.468 482.433 328.076 481.23 329.022C480.024 329.971 479.32 331.159 478.989 332.177C478.646 333.207 478.708 334.076 478.822 334.629C478.933 335.191 479.091 335.459 479.056 335.474C479.056 335.474 478.868 335.222 478.72 334.654C478.57 334.095 478.471 333.195 478.795 332.118C479.109 331.053 479.809 329.807 481.048 328.795C482.292 327.782 484.04 327.135 485.998 326.838C487.96 326.518 490.132 326.564 492.418 326.411C494.678 326.247 497.201 325.851 499.206 324.251C501.236 322.707 502.542 320.239 503.518 317.631C504.513 315.006 505.244 312.157 506.481 309.388C507.642 306.619 509.632 304.106 512.255 302.844C514.841 301.56 517.565 301.074 519.916 300.052C521.088 299.545 522.175 298.915 523.035 298.078L523.672 297.451C523.87 297.232 524.035 296.985 524.216 296.757C524.595 296.31 524.857 295.791 525.15 295.305C526.246 293.305 526.804 291.213 527.356 289.338C528.363 285.561 529.45 282.468 530.922 280.766C531.246 280.313 531.617 279.986 531.937 279.702C532.096 279.561 532.236 279.421 532.378 279.311C532.527 279.217 532.664 279.13 532.791 279.05C533.285 278.74 533.546 278.587 533.554 278.603Z" fill="#FAFAFA"/>
<path d="M533.821 249.059C533.839 249.058 533.858 249.351 533.877 249.914C533.885 250.476 533.818 251.31 533.578 252.357C533.078 254.439 531.557 257.297 528.711 259.883C527.304 261.182 525.606 262.437 523.665 263.568C521.735 264.714 519.605 265.804 517.423 267.037C515.249 268.273 513.007 269.671 511.037 271.527C509.041 273.361 507.546 275.772 506.2 278.324C504.84 280.873 503.636 283.467 502.005 285.713C501.196 286.835 500.282 287.86 499.271 288.737C498.254 289.608 497.145 290.315 496.019 290.903C493.759 292.076 491.457 292.801 489.324 293.469C487.186 294.13 485.193 294.715 483.449 295.446C481.703 296.166 480.191 296.981 478.968 297.846C477.745 298.712 476.815 299.619 476.155 300.44C474.823 302.09 474.543 303.285 474.467 303.245C474.45 303.239 474.546 302.961 474.745 302.434C474.976 301.924 475.334 301.163 475.995 300.315C476.641 299.46 477.57 298.513 478.797 297.61C480.024 296.708 481.547 295.858 483.305 295.107C485.062 294.345 487.067 293.736 489.193 293.058C491.316 292.374 493.591 291.637 495.794 290.479C496.892 289.899 497.965 289.206 498.945 288.361C499.919 287.509 500.801 286.515 501.589 285.416C503.176 283.219 504.37 280.645 505.738 278.08C507.088 275.516 508.627 273.037 510.684 271.156C512.709 269.259 514.991 267.851 517.184 266.619C519.386 265.391 521.518 264.317 523.443 263.196C525.375 262.092 527.056 260.875 528.459 259.611C531.293 257.098 532.826 254.333 533.379 252.305C533.92 250.258 533.741 249.053 533.821 249.059Z" fill="#FAFAFA"/>
<path d="M473.092 273.036C473.084 273.039 473.054 272.974 473.005 272.842C472.962 272.709 472.87 272.516 472.811 272.247C472.689 271.713 472.613 270.869 472.911 269.85C473.467 267.814 475.679 265.28 479.244 264.011C481.017 263.402 483.029 263.034 485.126 262.485C487.198 261.927 489.456 261.145 491.142 259.412C491.979 258.557 492.687 257.539 493.276 256.42C493.849 255.291 494.323 254.079 494.769 252.828C495.666 250.334 496.418 247.624 497.94 245.16C499.452 242.677 501.914 240.952 504.463 240.088C507.005 239.154 509.569 238.74 511.948 238.191C514.334 237.672 516.564 237 518.457 235.975C520.323 234.915 521.809 233.504 522.862 232.008C525.019 229.009 525.584 225.937 525.661 223.907C525.708 221.844 525.38 220.721 525.448 220.711C525.448 220.711 525.847 221.815 525.863 223.911C525.847 225.972 525.333 229.118 523.162 232.221C522.101 233.768 520.589 235.239 518.668 236.352C516.727 237.425 514.451 238.124 512.056 238.659C509.665 239.223 507.117 239.648 504.642 240.566C502.152 241.423 499.839 243.056 498.382 245.437C496.913 247.81 496.158 250.49 495.251 253C494.798 254.26 494.313 255.492 493.718 256.651C493.107 257.802 492.364 258.862 491.481 259.754C489.69 261.57 487.331 262.358 485.236 262.904C483.11 263.441 481.109 263.785 479.361 264.361C475.893 265.545 473.693 267.972 473.106 269.91C472.79 270.882 472.829 271.697 472.915 272.227C473.026 272.753 473.115 273.028 473.092 273.036Z" fill="#FAFAFA"/>
<path d="M530.115 327.019C530.133 327.017 530.156 327.232 530.184 327.647C530.208 328.06 530.175 328.679 530 329.452C529.647 330.992 528.457 333.1 526.22 334.855C525.119 335.743 523.786 336.558 522.255 337.21C520.728 337.864 519.04 338.382 517.277 338.932C515.515 339.482 513.666 340.057 511.869 340.907C510.058 341.736 508.387 342.949 506.947 344.497C505.488 346.025 504.229 347.694 502.833 349.168C501.443 350.651 499.863 351.872 498.224 352.774C494.933 354.592 491.521 355.215 488.714 355.247C485.885 355.278 483.641 354.684 482.168 354.159C481.425 353.9 480.873 353.641 480.507 353.447C480.137 353.263 479.948 353.158 479.956 353.142C479.964 353.126 480.169 353.199 480.55 353.351C480.927 353.513 481.488 353.74 482.232 353.967C483.708 354.427 485.93 354.955 488.706 354.878C491.461 354.8 494.793 354.149 497.988 352.354C499.582 351.46 501.102 350.274 502.459 348.817C503.827 347.365 505.08 345.696 506.568 344.136C508.033 342.558 509.794 341.282 511.648 340.445C513.494 339.581 515.367 339.011 517.134 338.473C518.902 337.936 520.582 337.436 522.086 336.812C523.588 336.193 524.902 335.415 525.991 334.566C528.203 332.888 529.398 330.883 529.803 329.401C530.199 327.902 530.043 327.017 530.115 327.019Z" fill="#FAFAFA"/>
<path d="M525.205 194.464L516.874 194.661C516.327 197.467 514.99 199.387 514.99 199.387C508.024 187.295 502.623 171.095 501.282 164.584C501.477 163.934 501.709 163.214 501.998 162.41C502.331 161.482 502.045 159.724 501.888 158.749C501.654 157.299 501.249 155.349 501.127 154.446C500.756 151.695 500.313 151.263 499.353 151.574C498.048 151.997 499.888 159.3 498.818 159.459C498.243 159.544 497.54 157.042 497.336 154.989C497.132 152.936 496.204 146.621 495.525 146.2C494.53 145.583 493.663 146.559 493.914 148.603C494.168 150.672 494.489 156.843 493.404 156.926C492.335 157.008 491.438 146.539 491.438 146.539C491.438 146.539 491.607 144.261 490.351 144.316C488.085 144.414 489.856 155.452 490.05 156.498C490.186 157.225 489.008 157.359 488.905 156.569C488.798 155.756 488.252 146.099 485.945 146.176C484.174 146.236 487.316 155.272 486.322 157.367C485.328 159.461 484.637 150.253 482.947 150.38C482.318 150.428 481.853 150.551 483.009 155.762C483.63 158.563 485.456 163.712 487.051 167.976C489.73 182.426 501.488 228.652 519.921 220.19C530.236 215.455 534.42 194.47 534.42 194.47L525.205 194.464Z" fill="#B78876"/>
<path d="M489.657 157.204C489.657 157.204 489.741 157.219 489.897 157.171C490.038 157.128 490.317 156.952 490.273 156.593C490.249 155.973 490.152 155.068 490.008 153.899C489.901 152.722 489.549 151.31 489.548 149.639C489.534 148.802 489.556 147.902 489.604 146.948C489.635 146.471 489.643 145.976 489.749 145.508C489.827 145.055 490.131 144.537 490.48 144.599L490.518 144.606L490.535 144.605C490.891 144.589 491.169 144.866 491.283 145.29C491.408 145.695 491.439 146.173 491.414 146.629L491.413 146.648L491.414 146.661C491.648 149.219 491.9 152.02 492.483 155.01C492.564 155.384 492.647 155.76 492.763 156.139C492.821 156.328 492.888 156.519 492.971 156.712C493.025 156.811 493.059 156.905 493.141 157.008C493.212 157.095 493.303 157.247 493.559 157.27C493.974 157.239 494.094 156.925 494.188 156.745C494.278 156.538 494.334 156.333 494.375 156.13C494.461 155.723 494.504 155.317 494.536 154.909C494.646 153.278 494.589 151.614 494.469 149.907C494.43 149.044 494.218 148.184 494.365 147.402C494.433 147.017 494.594 146.629 494.857 146.469C494.985 146.391 495.129 146.375 495.287 146.415C495.366 146.438 495.446 146.47 495.525 146.518C495.591 146.581 495.576 146.553 495.635 146.665C495.97 147.381 496.141 148.313 496.329 149.179C496.506 150.064 496.66 150.966 496.801 151.878C496.942 152.79 497.071 153.713 497.18 154.643C497.269 155.572 497.404 156.548 497.641 157.487C497.761 157.96 497.894 158.432 498.092 158.9C498.194 159.135 498.299 159.367 498.504 159.607C498.578 159.709 498.811 159.9 499.103 159.825C499.385 159.731 499.465 159.507 499.511 159.376C499.673 158.801 499.625 158.323 499.617 157.82C499.596 157.324 499.554 156.833 499.513 156.343C499.442 155.501 499.361 154.668 499.333 153.847C499.32 153.438 499.319 153.029 499.363 152.644C499.388 152.456 499.42 152.262 499.485 152.123C499.515 152.052 499.553 152 499.581 151.974C499.597 151.958 499.607 151.965 499.62 151.949L499.75 151.912C500.413 151.638 500.634 152.561 500.81 153.305C500.964 154.081 501.061 154.882 501.217 155.671C501.48 157.246 501.817 158.811 501.992 160.316C502.064 161.061 502.118 161.836 501.904 162.468C501.667 163.191 501.433 163.906 501.202 164.613L501.181 164.677L501.196 164.744C502.415 170.121 504.103 174.932 505.67 179.203C507.253 183.47 508.836 187.158 510.233 190.173C511.626 193.192 512.876 195.517 513.739 197.104C514.177 197.856 514.523 198.45 514.78 198.892C515.021 199.295 515.153 199.5 515.166 199.493C515.179 199.485 515.074 199.265 514.859 198.848C514.621 198.397 514.301 197.789 513.895 197.021C513.082 195.411 511.882 193.068 510.535 190.037C509.183 187.009 507.643 183.315 506.096 179.047C504.566 174.781 502.906 169.957 501.721 164.636L501.715 164.767C501.946 164.069 502.18 163.364 502.416 162.651C502.685 161.835 502.606 161.038 502.539 160.258C502.36 158.694 502.033 157.174 501.772 155.592C501.618 154.81 501.523 154.007 501.362 153.187C501.267 152.778 501.179 152.366 500.954 151.949C500.846 151.747 500.678 151.517 500.402 151.393C500.123 151.272 499.837 151.306 499.613 151.361L499.445 151.409C499.37 151.443 499.276 151.483 499.218 151.538C499.09 151.649 499.017 151.776 498.965 151.894C498.86 152.134 498.83 152.355 498.799 152.577C498.749 153.016 498.752 153.443 498.764 153.867C498.793 154.715 498.875 155.554 498.946 156.393C498.987 156.881 499.028 157.367 499.049 157.846C499.066 158.313 499.083 158.829 498.975 159.19C498.95 159.295 498.901 159.275 498.958 159.326L498.96 159.331C498.955 159.297 498.968 159.382 498.966 159.368L498.964 159.358C498.962 159.345 498.964 159.333 498.967 159.323C498.972 159.314 498.994 159.279 498.981 159.277C498.974 159.274 498.95 159.261 498.921 159.222C498.811 159.095 498.701 158.887 498.615 158.68C498.437 158.261 498.306 157.806 498.191 157.353C497.961 156.436 497.832 155.526 497.74 154.581C497.628 153.64 497.497 152.713 497.353 151.795C497.209 150.877 497.052 149.969 496.87 149.073C496.664 148.171 496.531 147.304 496.11 146.403C496.084 146.312 495.906 146.11 495.796 146.051C495.683 145.984 495.558 145.932 495.424 145.894C495.155 145.82 494.826 145.854 494.578 146.011C494.082 146.339 493.929 146.86 493.839 147.312C493.758 147.778 493.77 148.238 493.822 148.682C493.872 149.109 493.913 149.527 493.947 149.95C494.073 151.634 494.136 153.291 494.038 154.875C494.01 155.27 493.969 155.661 493.893 156.03C493.857 156.215 493.806 156.394 493.741 156.548C493.709 156.624 493.669 156.695 493.632 156.735C493.596 156.818 493.564 156.716 493.567 156.851C493.618 156.748 493.569 156.805 493.53 156.719C493.487 156.672 493.451 156.582 493.411 156.512C493.34 156.349 493.278 156.177 493.222 155.999C493.111 155.644 493.026 155.276 492.946 154.913C492.352 151.976 492.073 149.168 491.816 146.628V146.66C491.838 146.146 491.804 145.655 491.653 145.173C491.577 144.936 491.465 144.694 491.262 144.507C491.063 144.314 490.777 144.228 490.521 144.236L490.576 144.242C490.174 144.171 489.881 144.414 489.714 144.655C489.542 144.903 489.466 145.172 489.407 145.432C489.297 145.957 489.299 146.456 489.273 146.935C489.238 147.897 489.23 148.802 489.258 149.648C489.29 151.354 489.674 152.766 489.81 153.929C489.984 155.091 490.114 155.993 490.17 156.601C490.233 156.89 490 157.076 489.878 157.125C489.737 157.183 489.655 157.192 489.657 157.204Z" fill="#A36957"/>
<path d="M424.532 208.232C424.532 208.232 421.765 208.1 418.739 208.896C413.575 210.255 404.66 215.657 404.291 222.332H410.766C410.766 222.332 407.14 230.051 408.206 229.336C410.97 227.482 416.474 221.889 416.474 221.889L424.532 208.232Z" fill="#B78876"/>
<path d="M512.858 92.044C512.715 92.057 512.127 86.703 511.545 80.088C510.963 73.47 510.608 68.097 510.751 68.085C510.894 68.072 511.482 73.425 512.064 80.043C512.646 86.657 513.001 92.031 512.858 92.044Z" fill="#263238"/>
<path d="M541.266 68.411C541.383 68.494 537.008 74.844 531.496 82.591C525.982 90.341 521.418 96.554 521.3 96.471C521.183 96.388 525.557 90.039 531.071 82.289C536.583 74.542 541.148 68.328 541.266 68.411Z" fill="#263238"/>
<path d="M553.068 97.1876C553.097 97.3286 547.991 98.4966 541.666 99.7966C535.338 101.097 530.187 102.037 530.158 101.896C530.129 101.755 535.234 100.587 541.561 99.2866C547.887 97.9876 553.039 97.0476 553.068 97.1876Z" fill="#263238"/>
<path d="M212.958 234.545L177.597 416.344L172.968 440.143L409.031 438.978C419.625 438.926 429.014 429.519 432.423 415.543L474.282 243.906C476.869 233.296 471.192 222.261 463.149 222.27L224.226 222.521C218.951 222.528 214.339 227.45 212.958 234.545Z" fill="#E8505B"/>
<g opacity="0.5">
<path d="M212.958 234.545L177.597 416.344L172.968 440.143L409.031 438.978C419.625 438.926 429.014 429.519 432.423 415.543L474.282 243.906C476.869 233.296 471.192 222.261 463.149 222.27L224.226 222.521C218.951 222.528 214.339 227.45 212.958 234.545Z" fill="black"/>
</g>
<path d="M386.387 404.026L361.393 202.618C360.369 194.365 353.795 188.209 346.033 188.235L291.227 188.414C287.171 188.427 283.282 190.152 280.4 193.215L254.375 220.88L101.949 221.675C92.6341 221.724 85.4781 230.537 86.7131 240.44L109.919 426.593C110.946 434.834 117.508 440.982 125.259 440.966L390.906 440.441C420.493 441.054 423.317 432.316 423.317 432.316C389.41 439.831 386.39 404.049 386.387 404.026Z" fill="#E8505B"/>
<g opacity="0.5">
<path d="M271.842 363.718L262.883 373.34L193.88 311.265L202.84 301.643L271.842 363.718Z" fill="white"/>
<path d="M259.128 299.51L269.03 308.417L206.595 375.474L196.693 366.566L259.128 299.51Z" fill="white"/>
</g>
<path d="M424.319 103.785C423.68 103.511 423.221 102.89 423.188 102.149L422.789 92.865C422.763 92.281 423.013 91.719 423.463 91.347C423.913 90.974 424.512 90.835 425.081 90.969C426.573 91.321 428.219 90.996 429.596 90.077C430.864 89.231 431.715 87.985 431.93 86.658C432.146 85.336 431.737 83.873 430.808 82.643C429.813 81.326 428.343 80.439 426.867 80.27C423.856 79.923 420.605 82.23 419.768 85.308C419.498 86.302 418.473 86.89 417.479 86.619C416.468 86.341 415.897 85.323 416.167 84.329C417.481 79.491 422.473 76.007 427.295 76.562C429.795 76.85 432.164 78.246 433.784 80.392C435.326 82.432 435.992 84.934 435.613 87.258C435.231 89.603 433.793 91.761 431.667 93.18C430.131 94.205 428.369 94.771 426.607 94.832L426.917 101.988C426.961 103.018 426.162 103.888 425.132 103.932C424.844 103.945 424.568 103.891 424.319 103.785Z" fill="#E8505B"/>
<path d="M427.055 107.577C427.113 108.418 426.478 109.147 425.637 109.204C424.796 109.262 424.067 108.627 424.009 107.786C423.951 106.945 424.586 106.216 425.427 106.158C426.268 106.1 426.997 106.736 427.055 107.577Z" fill="#E8505B"/>
<path d="M392.186 90.694C392.198 90.694 392.229 90.488 392.276 90.085C392.323 89.65 392.389 89.058 392.472 88.297C392.517 87.506 392.719 86.55 392.956 85.423C393.088 84.863 393.156 84.24 393.361 83.61C393.556 82.976 393.763 82.303 393.981 81.591C394.949 78.783 396.442 75.415 398.954 72.065C401.448 68.722 404.955 65.419 409.456 62.917C411.673 61.595 414.208 60.674 416.866 59.861C419.565 59.222 422.426 58.674 425.415 58.745C426.91 58.665 428.417 58.884 429.953 59.013C430.72 59.086 431.475 59.291 432.246 59.425C433.017 59.567 433.792 59.718 434.547 59.98C437.634 60.772 440.633 62.228 443.491 64.033C449.228 67.642 454.059 73.514 456.709 80.632C458.038 84.193 458.674 88.097 458.669 92.04C458.748 95.991 457.983 100.004 456.577 103.782L456.126 104.924L456.067 105.075L456.128 105.216C458.636 110.993 461.096 116.659 463.479 122.149L463.9 121.671C458.736 119.687 453.728 117.763 448.924 115.917L448.739 115.846L448.594 115.987C444.439 120.013 439.476 122.734 434.452 124.152C429.412 125.573 424.336 125.646 419.719 124.825C415.092 124.006 410.926 122.236 407.452 119.961C403.968 117.686 401.174 114.92 399.02 112.109C396.882 109.267 395.474 106.353 394.41 103.75C393.474 101.09 392.9 98.729 392.622 96.775C392.504 95.799 392.399 94.931 392.308 94.174C392.288 93.426 392.272 92.79 392.258 92.263C392.242 91.772 392.229 91.384 392.219 91.092C392.207 90.829 392.196 90.694 392.186 90.694C392.177 90.694 392.169 90.827 392.162 91.091C392.158 91.384 392.153 91.771 392.147 92.265C392.146 92.794 392.144 93.435 392.144 94.187C392.221 94.95 392.309 95.825 392.409 96.809C392.655 98.782 393.201 101.172 394.118 103.871C395.162 106.512 396.561 109.475 398.703 112.371C400.861 115.236 403.674 118.06 407.195 120.39C410.706 122.72 414.927 124.541 419.624 125.395C424.31 126.249 429.471 126.196 434.604 124.766C439.722 123.34 444.786 120.581 449.03 116.485L448.699 116.555C453.501 118.408 458.504 120.34 463.667 122.332L464.422 122.623L464.089 121.854C461.708 116.362 459.252 110.695 456.747 104.917L456.749 105.208L457.21 104.041C458.648 100.18 459.427 96.075 459.346 92.037C459.349 88.007 458.693 84.016 457.331 80.379C454.616 73.108 449.673 67.133 443.821 63.471C440.906 61.639 437.847 60.169 434.704 59.371C433.935 59.108 433.146 58.957 432.362 58.815C431.578 58.681 430.809 58.476 430.029 58.404C428.468 58.279 426.935 58.064 425.417 58.151C422.379 58.093 419.473 58.661 416.737 59.326C414.041 60.165 411.474 61.116 409.232 62.47C404.681 65.037 401.151 68.412 398.656 71.819C396.142 75.232 394.669 78.655 393.732 81.501C393.522 82.222 393.323 82.905 393.137 83.546C392.94 84.184 392.881 84.813 392.759 85.379C392.542 86.519 392.36 87.483 392.337 88.28C392.282 89.045 392.239 89.643 392.207 90.08C392.182 90.486 392.175 90.693 392.186 90.694Z" fill="#263238"/>
</svg>
