<svg width="586" height="649" viewBox="0 0 586 649" fill="none" xmlns="http://www.w3.org/2000/svg">
<path d="M155.467 3.26672C152.4 6.06672 151.733 8.60006 148.533 30.0667C145.333 52.0667 145.333 54.0667 147.2 57.0001C151.6 63.6667 161.467 63.0001 164.667 55.9334C166.533 51.8001 172 17.4001 172 9.80006C172 5.26672 167.067 0.333391 162.267 0.333391C160.4 0.333391 157.333 1.66672 155.467 3.26672Z" fill="#03A0CF"/>
<path d="M42.9333 39.0001C39.0666 40.6001 36.7999 45.8001 37.9999 50.6001C38.9333 54.7334 66.3999 83.4001 72.3999 86.4667C79.3333 90.0667 86.6666 85.5334 86.6666 77.6667C86.6666 73.2667 85.1999 71.4001 68.9333 55.2667C51.0666 37.6667 49.3333 36.4667 42.9333 39.0001Z" fill="#03A0CF"/>
<path d="M239.867 75.6667C154.8 89.0001 86.9334 159.133 74.8001 246.2C73.8667 253 73.3334 297.133 73.3334 373.667V490.733L53.3334 509.667C30.6667 531.133 27.7334 535.667 27.8667 548.467C27.8667 563 36.2667 575.267 49.2001 579.8C52.9334 581.133 70.8001 581.533 125.733 581.667C165.067 581.667 197.333 582.067 197.333 582.6C197.333 583.267 198.267 587.533 199.2 592.333C208.933 638.333 259.067 661.667 302.667 640.733C312.933 635.8 327.733 620.733 333.067 609.667C335.467 604.867 338 597.4 338.8 593C339.733 588.6 340.533 584.2 340.8 583.267C341.2 582.067 356.533 581.667 412.133 581.667C463.867 581.667 484.533 581.267 488.533 580.067C495.867 577.933 507.2 566.6 509.2 559.533C510 556.733 510.667 551.267 510.667 547.533C510.667 536.067 506.4 529.8 484.8 509.667L465.467 491.667V445.533L465.333 399.267L457.733 398.467C453.467 397.933 448.933 397.267 447.733 396.867C445.467 396.2 445.333 399.133 445.067 440.6L444.667 485L402.4 485.667C356.133 486.333 356.933 486.2 355.2 494.333C354.667 497.267 355.2 499.4 357.333 502.067L360.133 505.667H405.333H450.533L468.933 523C478.933 532.467 488 541.8 489.067 543.667C491.333 548.2 490.133 553.8 485.867 557.8L482.4 561L271.6 561.267C133.467 561.4 59.2001 561 56.2667 560.067C51.4667 558.6 48.0001 553.267 48.0001 547.533C48.0001 543.667 47.6001 544.2 79.6001 513.133L93.2001 500.067L93.7334 375.133C94.1334 253.667 94.2667 250.067 96.9334 237.933C105.333 201.4 120.8 172.333 145.333 147.133C174.667 117 212.4 98.8667 254.267 95.0001C291.867 91.5334 334.8 102.067 363.733 121.933L369.467 125.933L373.733 122.467C376.133 120.733 379.867 117.667 382 115.8L386 112.333L382.133 109.4C375.6 104.333 354.667 92.6001 344.667 88.4667C313.467 75.4001 273.2 70.4667 239.867 75.6667ZM318.933 587C318 599.133 305.333 616.2 292.8 622.333C272.933 632.067 248.133 628.2 233.067 613.267C226.133 606.2 220.533 595.8 219.2 587.267L218.267 581.667L268.8 581.933L319.333 582.333L318.933 587Z" fill="#03A0CF"/>
<path d="M219.333 129.533C192.533 139.133 164.8 160.6 148.267 184.6C140.667 195.667 129.867 217.267 128.533 223.8C126.8 232.733 139.067 239.4 145.333 232.867C146.667 231.533 149.6 225.8 151.867 220.467C161.333 198.067 180.4 175.267 200.533 162.467C210.533 156.067 214.133 154.2 231.067 147.133C238.533 143.933 241.067 139.4 238.533 133.4C235.733 126.6 230.667 125.533 219.333 129.533Z" fill="#03A0CF"/>
<path d="M27.3333 149.267C3.33333 153 0 154.6 0 162.6C0 168.467 4 172.333 10.1333 172.333C16.9333 172.333 50.6667 167.133 55.0667 165.4C63.4667 162.067 63.4667 151.667 55.0667 147.267C51.6 145.4 53.8667 145.267 27.3333 149.267Z" fill="#03A0CF"/>
<path d="M122.8 263.8C120.533 266.733 120 269.267 120 277.8C120 290.067 121.6 294.2 127.067 296.467C131.867 298.467 136.933 296.333 139.733 291C142.4 285.8 141.333 266.733 138.133 263.133C134.267 258.867 126.4 259.267 122.8 263.8Z" fill="#03A0CF"/>
<path d="M262 489C258 493 257.733 497.533 261.467 502.2L264.133 505.667H290.133C314.267 505.667 316.133 505.533 318.667 503C320.267 501.4 321.333 498.6 321.333 495.667C321.333 492.733 320.267 489.933 318.667 488.333C316.133 485.8 314.267 485.667 290.667 485.667C265.467 485.667 265.2 485.667 262 489Z" fill="#03A0CF"/>
<path d="M451 115C375.786 115 316 174.786 316 250C316 325.214 375.786 385 451 385C526.214 385 586 325.214 586 250C586 174.786 526.214 115 451 115ZM503.071 317.5L451 265.429L398.929 317.5L383.5 302.071L435.571 250L383.5 197.929L398.929 182.5L451 234.571L503.071 182.5L518.5 197.929L466.429 250L518.5 302.071L503.071 317.5Z" fill="#FF6161"/>
</svg>
