<svg width="453" height="384" viewBox="0 0 453 384" fill="none" xmlns="http://www.w3.org/2000/svg">
<path opacity="0.5" d="M231.393 383.197C353.624 383.197 452.711 369.455 452.711 352.504C452.711 335.552 353.624 321.811 231.393 321.811C109.163 321.811 10.0752 335.552 10.0752 352.504C10.0752 369.455 109.163 383.197 231.393 383.197Z" fill="#F5F5F5"/>
<path d="M191.572 297.395C191.615 294.243 191.49 289.875 190.738 284.745C190.104 280.424 188.08 266.621 180.802 256.19C169.802 240.425 157.332 247.454 144.55 231.155C137.235 221.827 139.292 216.939 130.926 209.472C123.536 202.876 115.603 200.447 107.15 199.057C85.7603 195.539 50.8633 198.839 50.8633 198.839C53.8093 232.663 65.1793 246.648 74.9913 253.174C88.7613 262.332 99.3533 256.722 111.626 267.684C127.603 281.954 117.115 298.123 132.016 312.97C132.016 312.97 138.539 319.47 189.162 329.091L191.572 297.395Z" fill="#F5F5F5"/>
<path d="M189.162 329.091C189.162 329.091 150.055 262.533 135.158 249.489C120.261 236.445 50.8633 198.839 50.8633 198.839" stroke="#D6D6D6" stroke-width="0.4657" stroke-miterlimit="10" stroke-linecap="round" stroke-linejoin="round"/>
<path d="M101.082 227.223L57.3994 229.668" stroke="#D6D6D6" stroke-width="0.4657" stroke-miterlimit="10" stroke-linecap="round" stroke-linejoin="round"/>
<path d="M110.106 232.628L113.005 200.232" stroke="#D6D6D6" stroke-width="0.4657" stroke-miterlimit="10" stroke-linecap="round" stroke-linejoin="round"/>
<path d="M129.968 245.464L92.1602 259.433" stroke="#D6D6D6" stroke-width="0.4657" stroke-miterlimit="10" stroke-linecap="round" stroke-linejoin="round"/>
<path d="M145.964 262.067L150.829 237.506" stroke="#D6D6D6" stroke-width="0.4657" stroke-miterlimit="10" stroke-linecap="round" stroke-linejoin="round"/>
<path d="M158.165 279.469L121.539 286.159" stroke="#D6D6D6" stroke-width="0.4657" stroke-miterlimit="10" stroke-linecap="round" stroke-linejoin="round"/>
<path d="M167.72 294.138L181.504 257.23" stroke="#D6D6D6" stroke-width="0.4657" stroke-miterlimit="10" stroke-linecap="round" stroke-linejoin="round"/>
<path d="M176.413 308.008L134.049 314.253" stroke="#D6D6D6" stroke-width="0.4657" stroke-miterlimit="10" stroke-linecap="round" stroke-linejoin="round"/>
<path d="M168.32 302.607C167.155 299.678 165.37 295.689 162.714 291.236C160.477 287.485 153.331 275.504 142.618 268.647C126.427 258.283 117.591 269.545 99.55 259.368C89.225 253.544 89.258 248.241 78.673 244.538C69.323 241.267 61.063 242.055 52.722 244.001C31.611 248.925 0.625 265.312 0.625 265.312C16.275 295.442 32.127 304.02 43.688 306.3C59.913 309.499 67.557 300.268 83.088 305.707C103.306 312.787 99.794 331.737 119.238 339.762C119.238 339.762 127.75 343.275 178.207 332.817L168.32 302.607Z" fill="#F5F5F5"/>
<path d="M178.207 332.816C178.207 332.816 116.63 286.258 97.879 279.898C79.127 273.537 0.625 265.312 0.625 265.312" stroke="#D6D6D6" stroke-width="0.4657" stroke-miterlimit="10" stroke-linecap="round" stroke-linejoin="round"/>
<path d="M57.8803 272.348L18.4473 291.303" stroke="#D6D6D6" stroke-width="0.4657" stroke-miterlimit="10" stroke-linecap="round" stroke-linejoin="round"/>
<path d="M68.285 273.895L58.582 242.85" stroke="#D6D6D6" stroke-width="0.4657" stroke-miterlimit="10" stroke-linecap="round" stroke-linejoin="round"/>
<path d="M91.5453 278.163L61.9463 305.522" stroke="#D6D6D6" stroke-width="0.4657" stroke-miterlimit="10" stroke-linecap="round" stroke-linejoin="round"/>
<path d="M112.672 287.393L107.78 262.837" stroke="#D6D6D6" stroke-width="0.4657" stroke-miterlimit="10" stroke-linecap="round" stroke-linejoin="round"/>
<path d="M130.598 298.811L99.3086 318.991" stroke="#D6D6D6" stroke-width="0.4657" stroke-miterlimit="10" stroke-linecap="round" stroke-linejoin="round"/>
<path d="M145.033 308.715L143.664 269.341" stroke="#D6D6D6" stroke-width="0.4657" stroke-miterlimit="10" stroke-linecap="round" stroke-linejoin="round"/>
<path d="M158.368 318.207L121.607 340.17" stroke="#D6D6D6" stroke-width="0.4657" stroke-miterlimit="10" stroke-linecap="round" stroke-linejoin="round"/>
<path d="M310.8 333.323H177.463L190.304 245.152H297.959L310.8 333.323Z" fill="#FF92C9"/>
<path d="M409.915 260.698H78.3477C69.9237 260.698 63.0947 253.869 63.0947 245.445V36.5626C63.0947 28.1386 69.9237 21.3096 78.3477 21.3096H409.915C418.339 21.3096 425.168 28.1386 425.168 36.5626V245.445C425.168 253.869 418.339 260.698 409.915 260.698Z" fill="#FDB6D6"/>
<path d="M401.129 235.583H87.1339C78.7099 235.583 71.8809 228.754 71.8809 220.33V43.7696C71.8809 35.3456 78.7099 28.5166 87.1339 28.5166H401.13C409.554 28.5166 416.383 35.3456 416.383 43.7696V220.33C416.383 228.754 409.554 235.583 401.129 235.583Z" fill="#FFDEEF"/>
<path d="M339.061 339.743H149.201V330.571C149.201 323.479 154.95 317.73 162.042 317.73H326.22C333.312 317.73 339.061 323.479 339.061 330.571V339.743Z" fill="#FDB6D6"/>
<path d="M83.1133 235.583H398.782" stroke="#262626" stroke-miterlimit="10" stroke-linecap="round" stroke-linejoin="round"/>
<path d="M157.559 335.157V330.342C157.559 327.429 159.92 325.068 162.833 325.068H305.228" stroke="#262626" stroke-miterlimit="10" stroke-linecap="round" stroke-linejoin="round"/>
<path d="M290.094 267.744L295.138 306.267" stroke="#262626" stroke-miterlimit="10" stroke-linecap="round" stroke-linejoin="round"/>
<path d="M240.947 256.306C245.026 256.306 248.334 252.999 248.334 248.919C248.334 244.84 245.026 241.532 240.947 241.532C236.867 241.532 233.56 244.84 233.56 248.919C233.56 252.999 236.867 256.306 240.947 256.306Z" fill="white"/>
<path d="M346.043 42.5713H385.253C392.725 42.5713 398.782 48.6283 398.782 56.1003V137.571" stroke="white" stroke-miterlimit="10" stroke-linecap="round" stroke-linejoin="round"/>
<path d="M375.966 68.3797C378.231 62.9317 380.47 58.7167 382.684 55.7377C384.897 52.7587 387.779 50.3827 391.333 48.6107C393.41 47.5247 395.573 46.7457 397.829 46.2747C400.081 45.8047 402.225 45.2057 404.261 44.4807C406.293 43.7567 408.164 42.7727 409.872 41.5327C411.579 40.2927 412.989 38.3347 414.103 35.6557C415.983 31.1317 416.052 27.4487 414.307 24.6117C412.562 21.7747 409.98 19.6447 406.564 18.2247C401.667 16.1897 397.73 16.1517 394.752 18.1077C391.771 20.0647 389.09 23.2557 386.71 27.6817L368.84 20.2537C370.721 15.7297 373.167 11.9257 376.181 8.84568C379.193 5.76668 382.6 3.49968 386.4 2.04568C390.198 0.593676 394.302 -0.0303201 398.712 0.17768C403.118 0.38468 407.632 1.44868 412.251 3.36868C422.225 7.51468 429.252 12.8197 433.337 19.2827C437.418 25.7467 437.561 33.5487 433.76 42.6917C432.531 45.6487 431.155 48.1077 429.635 50.0757C428.112 52.0417 426.376 53.6757 424.428 54.9787C422.478 56.2797 420.299 57.3517 417.893 58.1927C415.484 59.0337 412.828 59.8237 409.921 60.5647C407.235 61.2907 404.992 62.0647 403.189 62.8837C401.385 63.7057 399.851 64.7207 398.593 65.9287C397.331 67.1377 396.272 68.5137 395.417 70.0507C394.559 71.5907 393.709 73.3777 392.866 75.4077L375.966 68.3797ZM364.298 94.8867L371.842 76.7387L390.543 84.5127L382.999 102.661L364.298 94.8867Z" fill="#3897E9"/>
<path d="M266.994 95.6161V80.7961C266.994 75.9351 263.053 71.9941 258.192 71.9941H172.164C167.303 71.9941 163.362 75.9351 163.362 80.7961V95.6161V194.348C163.362 199.209 167.303 203.15 172.164 203.15H309.731C314.592 203.15 318.533 199.209 318.533 194.348V104.418C318.533 99.5571 314.592 95.6161 309.731 95.6161H266.994Z" fill="#F5F5F5"/>
<path d="M258.279 116.315L240.947 133.647L223.616 116.316L213.157 126.774L230.488 144.106L213.157 161.438L223.616 171.896L240.947 154.565L258.279 171.896L268.738 161.438L251.406 144.106L268.738 126.774L258.279 116.315Z" fill="#D6D6D6"/>
<path d="M53.1566 338.889V327.478H32.1426V358.857L79.5906 359.618V353.913L53.1566 338.889Z" fill="#F7A99C"/>
<path d="M81.2711 359.618V356.913C81.2711 354.147 79.7541 351.605 77.3201 350.291L57.3091 339.491C51.3101 341.13 46.6741 340.9 43.5061 340.363C38.2451 339.47 33.2171 337.08 31.5251 339.079C31.0411 339.651 30.9831 340.401 31.0021 340.917V357.51C31.0021 358.674 31.9461 359.618 33.1101 359.618H81.2711Z" fill="#FFC001"/>
<path d="M81.271 357.811H31.001" stroke="#3897E9" stroke-width="0.733" stroke-miterlimit="10" stroke-linecap="round" stroke-linejoin="round"/>
<path d="M70.1949 346.673L67.3789 350.395" stroke="#3897E9" stroke-width="0.733" stroke-miterlimit="10" stroke-linecap="round" stroke-linejoin="round"/>
<path d="M68.1324 345.508L65.3164 349.23" stroke="#3897E9" stroke-width="0.733" stroke-miterlimit="10" stroke-linecap="round" stroke-linejoin="round"/>
<path d="M65.9771 344.429L63.1602 348.15" stroke="#3897E9" stroke-width="0.733" stroke-miterlimit="10" stroke-linecap="round" stroke-linejoin="round"/>
<path d="M62.803 342.455C59.393 343.756 53.765 345.424 46.66 345.386C39.805 345.349 34.364 343.738 31.002 342.455" stroke="#3897E9" stroke-width="0.733" stroke-miterlimit="10" stroke-linecap="round" stroke-linejoin="round"/>
<path d="M113.063 338.889V327.478H92.0488V358.857L139.497 359.618V353.913L113.063 338.889Z" fill="#F7A99C"/>
<path d="M141.176 359.618V356.913C141.176 354.147 139.659 351.605 137.225 350.291L117.214 339.491C111.215 341.13 106.579 340.9 103.411 340.363C98.1503 339.47 93.1223 337.08 91.4303 339.079C90.9463 339.651 90.8883 340.401 90.9073 340.917V357.51C90.9073 358.674 91.8513 359.618 93.0153 359.618H141.176Z" fill="#FFC001"/>
<path d="M141.176 357.811H90.9072" stroke="#3897E9" stroke-width="0.733" stroke-miterlimit="10" stroke-linecap="round" stroke-linejoin="round"/>
<path d="M130.1 346.673L127.284 350.395" stroke="#3897E9" stroke-width="0.733" stroke-miterlimit="10" stroke-linecap="round" stroke-linejoin="round"/>
<path d="M128.038 345.508L125.222 349.23" stroke="#3897E9" stroke-width="0.733" stroke-miterlimit="10" stroke-linecap="round" stroke-linejoin="round"/>
<path d="M125.882 344.429L123.066 348.15" stroke="#3897E9" stroke-width="0.733" stroke-miterlimit="10" stroke-linecap="round" stroke-linejoin="round"/>
<path d="M122.708 342.455C119.298 343.756 113.67 345.424 106.565 345.386C99.7112 345.349 94.2692 343.738 90.9072 342.455" stroke="#3897E9" stroke-width="0.733" stroke-miterlimit="10" stroke-linecap="round" stroke-linejoin="round"/>
<path d="M100.986 176.384C100.986 176.384 118.292 231.345 120.954 238.952C123.616 246.559 126.089 257.209 125.518 266.527C124.947 275.846 116.009 333.278 116.009 333.278H89.955C89.955 333.278 88.115 272.612 87.228 267.858C86.341 263.104 78.734 236.211 78.734 236.211C78.734 236.211 76.262 267.668 74.17 276.035C72.078 284.403 55.343 334.229 55.343 334.229H31.001L41.271 176.384H100.986Z" fill="#3897E9"/>
<path d="M140.705 142.88C140.705 142.88 148.968 135.87 151.059 131.284C152.849 127.359 155.351 120.463 156.035 118.557C156.138 118.269 156.44 118.11 156.737 118.18L157.232 118.297C158.765 118.66 159.712 120.2 159.344 121.732L158.519 125.17L167.25 119.436C167.999 118.944 169.008 119.186 169.452 119.965C169.844 120.652 169.657 121.524 169.018 121.989L163.259 126.189L172.826 121.697C173.567 121.349 174.45 121.629 174.856 122.34L174.868 122.361C175.297 123.114 175.035 124.072 174.282 124.501L174.389 124.47C175.22 124.231 176.101 124.634 176.463 125.418C176.883 126.326 176.457 127.4 175.53 127.775L174.921 128.021C175.715 127.773 176.549 128.268 176.711 129.084C176.948 130.275 176.374 131.478 175.297 132.039C172.722 133.379 171.051 133.732 168.604 135.564C166.667 137.013 167.345 137.936 165.279 140.579C162.763 143.798 160.62 143.889 156.286 147.075C154.64 148.285 152.367 150.171 149.965 152.978L140.705 142.88Z" fill="#F7A99C"/>
<path d="M169.591 120.31C169.591 120.31 170.03 121.2 169.196 121.834C168.363 122.468 161.857 127.284 161.857 127.284" stroke="#262626" stroke-width="0.4147" stroke-miterlimit="10" stroke-linecap="round" stroke-linejoin="round"/>
<path d="M174.282 124.501L165.324 128.659" stroke="#262626" stroke-width="0.4147" stroke-miterlimit="10" stroke-linecap="round" stroke-linejoin="round"/>
<path d="M175.204 127.967L166.198 132.112" stroke="#262626" stroke-width="0.4147" stroke-miterlimit="10" stroke-linecap="round" stroke-linejoin="round"/>
<path d="M157.858 118.528C157.858 118.528 159.432 119.524 159.388 120.628C159.344 121.732 157.756 128.824 157.756 128.824" stroke="#262626" stroke-width="0.4147" stroke-miterlimit="10" stroke-linecap="round" stroke-linejoin="round"/>
<path d="M89.9562 333.279C89.9562 333.279 87.5982 271.075 87.4142 269.467C87.2302 267.859 78.3652 234.935 78.3652 234.935L79.9352 220.383C79.9352 220.383 97.8202 264.409 97.8202 267.313C97.8202 270.218 99.8072 333.279 99.8072 333.279H89.9562Z" fill="#1775AF"/>
<path d="M75.1855 272.227L81.5415 203.484" stroke="#262626" stroke-width="0.4147" stroke-miterlimit="10" stroke-linecap="round" stroke-linejoin="round"/>
<path d="M117.011 328.001H89.7549L89.9559 333.279H116.01L117.011 328.001Z" fill="#262626"/>
<path d="M56.923 329.515H31.308L31.001 334.23H55.344L56.923 329.515Z" fill="#262626"/>
<path d="M118.597 244.387C122.046 255.244 122.593 267.008 120.165 278.138" stroke="white" stroke-width="0.4147" stroke-miterlimit="10" stroke-linecap="round" stroke-linejoin="round"/>
<path d="M147.574 135.487C147.574 135.487 143.162 138.884 138.136 139.766C132.247 140.8 127.14 137.312 125.769 136.376C122.035 133.826 120.656 130.805 118.187 127.27C110.873 116.8 106.33 110.296 99.9699 106.613C96.6829 104.709 91.1859 102.56 82.5199 103.225C80.5759 102.528 77.4769 103.08 75.4009 103.08C73.6749 103.08 71.9499 103.08 70.2239 103.08C66.8219 103.488 41.7659 106.399 37.5059 102.487C35.8269 100.945 35.7999 99.4261 35.7999 99.4261C35.7779 98.1701 36.5709 96.8631 38.6469 95.2821C43.7199 91.4191 53.0259 88.5351 56.1429 87.6161L54.2409 73.4121C54.2409 73.4121 54.2409 73.4121 50.0569 73.4121C45.8729 73.4121 31.0389 75.8841 23.0519 78.6751C11.8529 82.5881 5.85289 85.4441 2.89289 91.9311C-0.815108 100.06 3.13489 108.797 4.16089 111.067C9.30289 122.44 20.7049 127.043 27.5919 129.823C33.6659 132.275 39.0719 133.26 42.8299 133.698L39.5969 185.426L99.0529 188.659H107.982C108.666 180.755 105.246 156.197 105.689 148.175C113.28 158.739 125.854 164.074 137.791 161.78C151.006 159.241 157.652 148.465 158.734 146.646C154.122 137.547 147.574 135.487 147.574 135.487Z" fill="#4450E4"/>
<path d="M73.7029 131.741H73.1299V107.053H76.8749V128.569C76.8749 130.321 75.4549 131.741 73.7029 131.741Z" fill="white"/>
<path d="M108.073 185.932C106.025 186.312 77.8817 191.031 57.9957 170.034C41.2157 152.317 43.1997 129.896 43.5497 126.58C42.5057 142.132 41.4607 157.684 40.4167 173.236H40.3597L39.5977 185.426L48.9177 185.933L48.9117 185.867C62.8117 186.967 77.1567 187.788 91.9257 188.272C97.3357 188.449 102.689 188.577 107.984 188.66C108.013 187.75 108.043 186.841 108.073 185.932Z" fill="#3748C4"/>
<path d="M92.3071 84.3928C93.3261 79.1628 93.1671 75.0748 92.8711 72.4618C92.6461 70.4738 92.3001 68.9688 91.2441 67.5378C91.0211 67.2358 89.2671 64.9298 86.2571 64.3278C82.6571 63.6068 81.7481 66.2218 76.6271 66.8558C72.2111 67.4018 71.3411 65.6488 68.3711 66.9078C65.1271 68.2828 63.5261 71.4938 63.0401 72.4688C62.8281 72.8948 61.7711 75.0728 61.6641 78.1248C61.5791 80.5418 62.1311 82.3598 62.3501 83.1038C63.2701 86.2348 64.3531 90.9968 65.6771 98.6098C66.3681 98.5838 67.0601 98.5588 67.7511 98.5328C75.9371 93.8178 84.1221 89.1048 92.3071 84.3928Z" fill="#262626"/>
<path d="M74.7979 110.115C70.9299 110.13 67.7829 107.006 67.7689 103.139L67.7119 88.0686L81.7179 88.0156L81.7749 103.086C81.7889 106.953 78.6659 110.1 74.7979 110.115Z" fill="#F7A99C"/>
<path d="M81.7587 98.8667L72.6377 94.1807C72.7297 94.9707 73.2487 98.6697 76.5017 101.225C78.5787 102.856 80.7627 103.229 81.7707 103.335L81.7587 98.8667Z" fill="#FF7769"/>
<path d="M67.3723 83.3993C67.3283 83.1713 66.7283 82.8274 66.5443 82.7104C66.2333 82.5114 65.8963 82.3524 65.5443 82.2394C64.8613 82.0194 64.1103 81.9684 63.4083 82.1294C62.0123 82.4494 60.7743 83.6224 60.5413 85.0594C60.4063 85.8944 60.5993 86.7574 60.9563 87.5234C61.4943 88.6754 62.4063 89.6434 63.5083 90.2774C64.4213 90.8034 65.4603 91.1014 66.5103 91.1634C66.7203 91.1754 68.8733 91.1264 68.8573 91.0434C68.3613 88.4954 67.8663 85.9473 67.3723 83.3993Z" fill="#F7A99C"/>
<path d="M65.4524 83.5458C65.6184 84.6698 66.6064 90.6008 71.9524 94.7908C72.9374 95.5628 79.4834 100.694 85.4734 98.1898C93.1704 94.9718 92.3304 82.3298 92.2764 81.6448C92.0934 79.3298 91.5524 72.5128 85.9074 68.8758C81.3004 65.9078 76.3074 66.9988 75.5994 67.1658C74.8534 67.3408 70.1004 68.5408 67.1914 73.2008C64.5504 77.4298 65.1814 81.7058 65.4524 83.5458Z" fill="#F7A99C"/>
<path d="M87.9068 81.6535C88.0308 82.6405 88.7918 83.3575 89.6068 83.2555C90.4218 83.1535 90.9818 82.2705 90.8578 81.2835C90.7338 80.2965 89.9728 79.5795 89.1578 79.6815C88.3428 79.7835 87.7828 80.6665 87.9068 81.6535Z" fill="#262626"/>
<path d="M79.0133 82.7707C79.1373 83.7577 79.8983 84.4747 80.7133 84.3727C81.5283 84.2707 82.0883 83.3877 81.9643 82.4007C81.8403 81.4137 81.0793 80.6967 80.2643 80.7987C79.4503 80.9007 78.8893 81.7837 79.0133 82.7707Z" fill="#262626"/>
<path d="M85.2219 83.1309L86.5849 84.9729C86.8359 85.3109 86.7419 85.7919 86.3819 86.0109L85.1299 86.7729" stroke="#262626" stroke-width="0.733" stroke-miterlimit="10" stroke-linecap="round" stroke-linejoin="round"/>
<path d="M76.0306 87.4196C76.1696 88.5266 77.1806 89.3126 78.2876 89.1726C79.3946 89.0336 80.1806 88.0226 80.0406 86.9156C79.9016 85.8086 78.8906 85.0226 77.7836 85.1626C76.6766 85.3016 75.8916 86.3126 76.0306 87.4196Z" fill="#FF7769"/>
<path d="M66.4323 88.4632C66.4393 88.2412 66.4573 86.7372 65.2513 85.6522C64.3063 84.8022 63.2063 84.7462 62.9062 84.7412" stroke="#262626" stroke-width="0.733" stroke-miterlimit="10" stroke-linecap="round" stroke-linejoin="round"/>
<path d="M65.3679 85.9505C65.3009 85.9395 64.4919 85.8275 63.9269 86.4395C63.4619 86.9425 63.5049 87.5645 63.5139 87.6675" stroke="#262626" stroke-width="0.733" stroke-miterlimit="10" stroke-linecap="round" stroke-linejoin="round"/>
<path d="M65.2758 82.1643C65.2758 82.1643 66.2708 82.2523 67.0208 82.9973C67.7708 83.7413 68.0368 85.0163 68.0368 85.0163C69.9538 84.7833 74.3448 83.9744 78.3278 80.5174C80.4868 78.6434 81.8048 76.6173 82.5818 75.1563C83.3078 75.8093 84.5468 76.7903 86.2998 77.5463C88.5868 78.5323 91.4438 79.0043 91.8228 78.2363C91.8928 78.0943 91.8158 77.6823 91.6598 76.8593C91.6038 76.5613 91.5448 76.1204 91.3998 75.6984C91.1168 74.8724 90.7488 74.0753 90.3098 73.3203C89.4298 71.8103 88.2588 70.4694 86.8808 69.3944C85.9848 68.6964 85.0018 68.1103 83.9558 67.6653C80.6358 66.2533 76.0258 66.2523 72.0578 68.3683C72.0578 68.3683 67.6278 70.7313 65.6748 75.3553C65.0038 76.9443 64.8348 78.5334 64.7928 79.0844C64.7088 80.1754 64.8318 80.8883 64.9978 81.4363C65.0918 81.7463 65.1968 81.9953 65.2758 82.1643Z" fill="#262626"/>
<path d="M91.227 84.2232C91.61 84.1752 91.979 84.2432 92.307 84.3922C92.268 85.4772 92.164 86.7932 91.925 88.1892C91.86 88.2042 91.798 88.2252 91.731 88.2342C90.624 88.3732 89.613 87.5882 89.474 86.4812C89.335 85.3742 90.119 84.3622 91.227 84.2232Z" fill="#FF7769"/>
<path d="M76.3974 67.4231C75.7394 67.1671 74.7754 66.8181 73.5884 66.4771C70.9864 65.7311 69.6854 65.358 68.5014 65.51C65.0354 65.955 63.0444 70.523 62.2094 72.439C61.5774 73.889 60.5434 76.35 61.0914 79.433C61.3354 80.805 61.8184 81.8781 62.2024 82.5871" stroke="#262626" stroke-width="0.25" stroke-miterlimit="10" stroke-linecap="round" stroke-linejoin="round"/>
<path d="M76.3975 67.0106C77.5695 66.4986 78.8225 66.0836 79.9515 65.4966C81.1365 64.8806 82.1715 64.0796 83.4405 63.6066C84.7735 63.1096 86.2615 62.9106 87.6225 63.3236C88.7955 63.6796 89.7985 64.4636 90.6265 65.3676C91.7415 66.5856 92.5905 68.0556 93.0325 69.6466C93.8845 72.7126 93.1235 75.9076 92.6215 78.9636" stroke="#262626" stroke-width="0.25" stroke-miterlimit="10" stroke-linecap="round" stroke-linejoin="round"/>
<path d="M86.7266 90.9915C86.7266 91.9875 85.7566 92.7945 84.5606 92.7945C83.3636 92.7945 82.3936 91.9875 82.3936 90.9915C82.3936 89.9955 83.3636 89.1885 84.5606 89.1885C85.7566 89.1895 86.7266 89.9965 86.7266 90.9915Z" fill="white"/>
<path d="M54.5684 75.8495L58.5694 73.4125C58.5694 73.4125 59.3864 69.8875 60.4974 69.1425C61.6084 68.3975 67.5124 66.1045 67.5124 66.1045L68.3724 66.9075C68.3724 66.9075 63.7524 71.1275 62.7954 73.0015C61.8374 74.8755 61.6574 80.0925 61.6574 80.0925L57.1374 85.9365L56.0314 86.7735L54.5684 75.8495Z" fill="#F7A99C"/>
<path d="M43.5503 128.824L41.4463 155.857" stroke="#262626" stroke-width="0.4147" stroke-miterlimit="10" stroke-linecap="round" stroke-linejoin="round"/>
<path d="M104.658 131.034L106.271 160.861" stroke="#262626" stroke-width="0.4147" stroke-miterlimit="10" stroke-linecap="round" stroke-linejoin="round"/>
<path d="M12.2892 88.4639C11.4532 89.1289 7.12917 92.7059 6.42917 99.0249C5.66717 105.909 9.80717 110.621 10.4542 111.333" stroke="white" stroke-width="0.4147" stroke-miterlimit="10" stroke-linecap="round" stroke-linejoin="round"/>
<path d="M115.015 150.161C116.127 151.396 120.451 155.903 127.717 156.885C134.608 157.817 139.749 154.985 141.231 154.097" stroke="white" stroke-width="0.4147" stroke-miterlimit="10" stroke-linecap="round" stroke-linejoin="round"/>
<path d="M303.939 173.845L313.214 168.887L326.972 171.409L333.851 164.071L350.131 168.428L359.189 156.046L375.363 165.96L369.86 130.997L348.518 116.054L299.466 123.774C297.629 124.063 296.375 125.786 296.664 127.623L303.939 173.845Z" fill="#F5F5F5"/>
<path d="M353.504 133.571L369.861 130.997L348.519 116.054L350.988 131.739C351.176 132.94 352.303 133.76 353.504 133.571Z" fill="#D6D6D6"/>
<path d="M348.519 116.053L350.988 131.738C351.177 132.939 352.304 133.759 353.505 133.57L369.862 130.996" stroke="#262626" stroke-width="0.274" stroke-miterlimit="10" stroke-linecap="round" stroke-linejoin="round"/>
<path d="M310.551 219.751C310.84 221.588 312.563 222.842 314.4 222.553L378.657 212.44C380.494 212.151 381.748 210.428 381.459 208.591L375.363 169.857L359.189 159.943L350.131 172.325L333.851 167.968L326.972 175.306L313.214 172.784L303.939 177.742L310.551 219.751Z" fill="#F5F5F5"/>
<path d="M303.952 173.845L313.227 168.887L326.985 171.409L333.864 164.071L350.144 168.428L359.202 156.046L375.376 165.96L369.873 130.997L348.531 116.054L299.479 123.774C297.642 124.063 296.388 125.786 296.677 127.623L303.952 173.845Z" stroke="#262626" stroke-width="0.274" stroke-miterlimit="10" stroke-linecap="round" stroke-linejoin="round"/>
<path d="M310.564 219.751C310.853 221.588 312.576 222.842 314.413 222.553L378.67 212.44C380.507 212.151 381.761 210.428 381.472 208.591L375.376 169.857L359.202 159.943L350.144 172.325L333.864 167.968L326.985 175.306L313.227 172.784L303.952 177.742L310.564 219.751Z" stroke="#262626" stroke-width="0.274" stroke-miterlimit="10" stroke-linecap="round" stroke-linejoin="round"/>
<path d="M55.3606 65.097L53.7386 66.645L39.3906 53.69L43.5206 49.751L55.3606 65.097Z" fill="#FF7129"/>
<path d="M58.9063 62.4402L56.7013 62.8482L51.7803 44.1542L57.3923 43.1172L58.9063 62.4402Z" fill="#FF7129"/>
<path d="M51.2601 68.6224L51.0761 70.8574L31.7451 70.7114L32.2141 65.0234L51.2601 68.6224Z" fill="#FF7129"/>
<path d="M282.209 352.06C277.359 347.293 277.291 339.497 282.058 334.647L338.751 276.96L356.315 294.222L299.622 351.908C294.855 356.759 287.059 356.827 282.209 352.06Z" fill="#FF7129"/>
<path opacity="0.2" d="M383.367 299.036C410.865 298.973 433.105 276.63 433.042 249.131C432.979 221.633 410.636 199.393 383.138 199.456C355.639 199.519 333.399 221.862 333.462 249.36C333.525 276.859 355.868 299.099 383.367 299.036Z" fill="#DCF0FF"/>
<path opacity="0.5" d="M336.646 266.806C338.325 271.273 340.665 275.545 343.67 279.47L433.02 248.565C432.953 243.734 432.184 238.914 430.721 234.266L336.646 266.806Z" fill="white"/>
<path opacity="0.5" d="M333.568 252.549C333.754 255.374 334.181 258.184 334.847 260.949L428.52 228.549C427.352 225.994 425.961 223.519 424.339 221.153L333.568 252.549Z" fill="white"/>
<path d="M423.518 208.275C400.884 186.03 364.502 186.346 342.257 208.981C320.012 231.615 320.328 267.997 342.963 290.242C365.597 312.487 401.979 312.171 424.224 289.536C446.469 266.901 446.153 230.519 423.518 208.275ZM350.071 283.009C331.431 264.69 331.171 234.729 349.49 216.088C367.809 197.448 397.77 197.188 416.41 215.507C435.05 233.826 435.31 263.787 416.991 282.428C398.673 301.068 368.711 301.328 350.071 283.009Z" fill="#FF7129"/>
<path d="M342.73 299.529L297.902 345.142" stroke="white" stroke-miterlimit="10" stroke-linecap="round" stroke-linejoin="round"/>
<path d="M387.361 195.925C373.237 194.5 358.594 199.375 348.142 208.981C337.69 218.588 331.601 232.769 331.833 246.963" stroke="white" stroke-miterlimit="10" stroke-linecap="round" stroke-linejoin="round"/>
</svg>
