<svg width="113" height="125" viewBox="0 0 113 125" fill="none" xmlns="http://www.w3.org/2000/svg">
<path d="M33.4439 46.7189C32.8906 43.9315 30.2369 41.3363 26.5955 42.1321C22.9582 42.9301 22.9449 46.3232 23.4982 49.1137C23.5293 49.258 25.3193 56.7969 26.3722 58.3818C27.4233 59.9707 28.95 62.985 31.5091 62.1262C33.2019 61.5582 34.1984 58.5434 34.5989 56.3675C34.999 54.1907 33.4439 46.7189 33.4439 46.7189Z" fill="#F9BB8D"/>
<path d="M79.7715 46.6056C80.3253 43.8178 82.9781 41.2231 86.6194 42.0193C90.2603 42.816 90.6169 46.309 90.0654 49.0955C90.0348 49.2434 88.0995 56.2201 87.1918 58.368C86.4449 60.1368 84.4116 63.2514 81.7689 62.1621C80.117 61.4805 79.017 58.4289 78.616 56.253C78.2164 54.0775 79.7715 46.6056 79.7715 46.6056Z" fill="#F9BB8D"/>
<path d="M0 131.982H112.915C112.915 131.982 110.69 104.266 106.985 100.113C103.279 95.9595 75.0524 86.6741 75.0524 86.6741L38.159 86.5671C38.159 86.5671 8.45812 95.2592 6.42963 100.113C4.40069 104.966 0 131.982 0 131.982Z" fill="#988EF5"/>
<path d="M52.9078 86.6088L38.1595 86.5667C38.1595 86.5667 8.45857 95.2588 6.43008 100.112C4.40114 104.966 0.000450134 131.982 0.000450134 131.982H14.8957C14.8957 131.982 19.2964 104.965 21.3249 100.112C23.2748 95.448 50.7696 87.2408 52.9078 86.6088Z" fill="#8B80F8"/>
<path d="M42.1503 84.7531C42.1503 84.7531 51.4512 92.3799 56.6681 92.3799C61.8837 92.3799 71.1824 84.7531 71.1824 84.7531C71.1824 84.7531 67.2471 80.1726 69.9599 74.1546C72.6722 68.1379 39.7079 68.6308 43.5402 74.1546C47.3707 79.6788 42.1503 84.7531 42.1503 84.7531Z" fill="#D99870"/>
<path d="M51.814 91.0047C52.5081 89.0978 53.9011 87.1866 56.1343 85.56C58.3667 83.9325 59.6882 85.3939 69.1317 79.9745C68.8724 78.3213 68.9772 76.3341 69.9599 74.1541C72.6722 68.1375 39.7079 68.6304 43.5402 74.1541C47.3707 79.6783 42.1503 84.7527 42.1503 84.7527C42.1503 84.7527 47.1078 88.8092 51.814 91.0047Z" fill="#C38256"/>
<path d="M40.3149 84.2131L38.159 86.5671C38.159 86.5671 44.586 102.441 50.167 104.453C51.8709 105.068 55.4221 97.2007 56.6601 97.2007C57.2574 97.2007 62.0515 105.546 62.7798 105.38C68.4967 104.077 75.0524 86.6741 75.0524 86.6741L72.6358 84.841L56.6601 94.8956L40.3149 84.2131Z" fill="#C5D2DB"/>
<path d="M83.3258 25.7461C83.3258 13.6502 75.8322 1.51387 55.9922 1.51387C36.1523 1.51387 28.9486 14.7945 28.9486 26.8918C28.9486 27.5268 28.8874 60.4187 32.7401 67.9714C36.5919 75.5223 47.1957 83.2304 56.6659 83.2659C67.0219 83.3068 76.3282 76.6542 80.6765 67.9714C85.0261 59.2859 83.3258 25.7461 83.3258 25.7461Z" fill="#F9BB8D"/>
<path d="M36.5835 28.47C36.7531 28.5908 36.9067 28.696 37.1066 28.8421C37.6492 29.3528 34.9249 35.4259 35.718 35.4565C39.648 36.2833 44.363 27.771 48.2029 28.9638C54.9633 31.0682 67.6778 48.1066 80.1565 47.7731C83.4359 44.6109 83.3263 25.7457 83.3263 25.7457C83.3263 13.6498 75.8326 1.51344 55.9927 1.51344C39.5543 1.51344 31.8098 10.6323 29.6307 20.6385C32.6992 21.9502 35.2681 24.4867 36.5835 28.47Z" fill="#DAA17B"/>
<path d="M64.4348 74.6115C54.9642 74.5756 44.3613 66.8675 40.5086 59.3157C36.6567 51.7626 36.7185 18.8715 36.7185 18.2361C36.7185 14.0303 37.6141 9.69314 39.584 5.81067C32.0185 10.7021 28.9495 19.0341 28.9495 26.8922C28.9495 27.5273 28.8882 60.4192 32.741 67.9719C36.5928 75.5228 47.1966 83.2309 56.6668 83.2664C66.458 83.3046 75.3047 77.3576 79.9167 69.3702C75.5054 72.6226 70.1313 74.6329 64.4348 74.6115Z" fill="#F0B286"/>
<path d="M79.7831 69.5696C79.8239 69.5008 79.8763 69.439 79.9167 69.3702C79.6947 69.5323 79.4616 69.678 79.2351 69.8352C79.4207 69.7521 79.6006 69.6562 79.7831 69.5696Z" fill="#E2A980"/>
<path d="M61.1616 80.7148C51.6924 80.6792 41.0876 72.972 37.2362 65.4189C33.384 57.8662 33.4448 24.9765 33.4448 24.3397C33.4448 18.9195 34.9529 13.3007 38.3406 8.71394C38.6954 7.72545 39.1053 6.7525 39.5836 5.8102C32.018 10.7016 28.9491 19.0336 28.9491 26.8918C28.9491 27.5268 28.8878 60.4187 32.7405 67.9714C36.5923 75.5223 47.1962 83.2304 56.6663 83.2659C62.0378 83.2877 67.0926 81.4657 71.3529 78.5353C68.1872 79.9283 64.7399 80.7299 61.1616 80.7148Z" fill="#E2A980"/>
<path d="M87.7643 22.8614C85.3228 9.54524 74.4481 -0.109632 56.6668 0.000940103C38.937 0.111957 27.2838 10.9787 24.9543 23.3046C23.9556 28.5837 23.1842 38.6191 23.5945 44.6007C26.596 42.1326 27.8336 41.8115 29.287 42.3901C30.2813 53.2671 32.6477 53.1036 32.6477 53.1036C32.6477 53.1036 32.8657 45.7171 33.3484 40.8359C33.832 35.956 41.8221 35.0692 45.8169 26.6298C58.4683 26.0796 66.4571 42.2818 80.3288 43.169C78.9567 51.1879 81.9945 54.3781 81.9945 54.3781C81.9945 54.3781 82.3165 47.7535 83.4355 44.6118C84.4111 41.8741 87.3206 41.8741 88.759 43.0615C89.4499 38.0796 89.1133 30.2183 87.7643 22.8614Z" fill="#3D2216"/>
<g opacity="0.5">
<path d="M87.7643 22.8614C85.3228 9.54524 74.4481 -0.109632 56.6668 0.000940103C41.1045 0.0977464 30.2284 8.48348 26.2252 18.868C31.212 10.329 41.2128 3.9136 54.8035 3.82967C72.5856 3.71999 83.4599 13.3735 85.9018 26.6911C86.8934 32.1002 87.3335 37.7736 87.2243 42.3839C87.802 42.4923 88.3433 42.7205 88.759 43.0615C89.4499 38.0796 89.1133 30.2183 87.7643 22.8614Z" fill="#713C2E"/>
</g>
<path d="M45.8174 20.3027C41.8226 28.7431 28.9495 36.6963 23.5945 38.2736C23.5759 38.0005 23.5715 37.679 23.5577 37.389C23.4595 40.0272 23.4547 42.5557 23.5945 44.6007C26.596 42.1326 27.8336 41.8115 29.287 42.3901C30.2813 53.2671 32.6477 53.1036 32.6477 53.1036C32.6477 53.1036 32.8657 45.7171 33.3484 40.8359C33.832 35.956 41.8221 35.0692 45.8169 26.6298C58.4133 26.0814 66.3945 42.1326 80.1561 43.1459C70.0061 39.6222 58.4688 19.7534 45.8174 20.3027Z" fill="#27110B"/>
<path d="M40.3149 80.4403L38.159 86.5671C38.159 86.5671 44.586 98.6683 50.167 100.68C51.8709 101.295 55.4221 93.4288 56.6601 93.4288C57.2574 93.4288 62.0515 101.775 62.7798 101.608C68.4967 100.304 75.0524 86.6741 75.0524 86.6741L72.6358 81.0682L56.6601 91.1232L40.3149 80.4403Z" fill="white"/>
</svg>
