<svg width="50" height="60" viewBox="0 0 50 60" fill="none" xmlns="http://www.w3.org/2000/svg">
<path d="M43.8819 6.43961H32.4177C31.2658 3.03032 28.2489 0.561523 24.6835 0.561523C21.1181 0.561523 18.1013 3.03032 16.9494 6.43961H5.48523C4.03046 6.43961 2.63527 7.05891 1.60659 8.16126C0.577907 9.26362 0 10.7587 0 12.3177V53.4643C0 55.0233 0.577907 56.5184 1.60659 57.6208C2.63527 58.7231 4.03046 59.3424 5.48523 59.3424H43.8819C45.3366 59.3424 46.7318 58.7231 47.7605 57.6208C48.7892 56.5184 49.3671 55.0233 49.3671 53.4643V12.3177C49.3671 10.7587 48.7892 9.26362 47.7605 8.16126C46.7318 7.05891 45.3366 6.43961 43.8819 6.43961ZM24.6835 6.43961C25.4109 6.43961 26.1085 6.74926 26.6229 7.30044C27.1372 7.85162 27.4262 8.59917 27.4262 9.37866C27.4262 10.1581 27.1372 10.9057 26.6229 11.4569C26.1085 12.0081 25.4109 12.3177 24.6835 12.3177C23.9562 12.3177 23.2586 12.0081 22.7442 11.4569C22.2299 10.9057 21.9409 10.1581 21.9409 9.37866C21.9409 8.59917 22.2299 7.85162 22.7442 7.30044C23.2586 6.74926 23.9562 6.43961 24.6835 6.43961ZM4.09461 41.7081H14.0148L18.1561 33.3319L20.2405 50.2901L30.3608 36.4473L35.3523 41.7081H45.2725V54.9524H23.9882H4.09461V41.7081ZM45.2725 37.182H37.1076L29.9768 29.5405L23.1477 38.916L20.5696 18.4309L11.4367 37.182H4.09461V10.8296H10.9705V13.7686H38.3966V10.8296H45.2725V37.182Z" fill="#04C1D6"/>
</svg>
